<?xml version="1.0" standalone="no"?>
<!DOCTYPE svg PUBLIC "-//W3C//DTD SVG 20010904//EN"
 "http://www.w3.org/TR/2001/REC-SVG-20010904/DTD/svg10.dtd">
<svg version="1.0" xmlns="http://www.w3.org/2000/svg"
 width="602.000000pt" height="602.000000pt" viewBox="0 0 602.000000 602.000000"
 preserveAspectRatio="xMidYMid meet">
<metadata>
Created by potrace 1.14, written by Peter Selinger 2001-2017
</metadata>
<g transform="translate(0.000000,602.000000) scale(0.100000,-0.100000)"
fill="#000000" stroke="none">
<path d="M2905 5528 c-145 -21 -299 -63 -400 -109 -27 -12 -64 -28 -80 -34
-44 -16 -253 -156 -300 -200 -291 -276 -370 -395 -428 -645 -20 -85 -22 -124
-21 -320 2 -184 19 -287 75 -431 40 -103 36 -114 -30 -82 -96 48 -116 20 -116
-167 0 -120 3 -141 23 -185 13 -27 34 -93 47 -147 13 -54 36 -122 50 -151 14
-30 25 -71 25 -93 0 -50 29 -111 69 -148 17 -17 31 -35 31 -42 0 -6 11 -49 25
-95 14 -46 27 -91 29 -99 23 -83 81 -204 149 -308 l47 -73 10 -196 c6 -108 9
-197 7 -200 -2 -2 -31 -10 -63 -18 -32 -9 -113 -42 -179 -75 -67 -33 -128 -60
-138 -60 -9 0 -38 -16 -64 -36 -27 -20 -57 -41 -69 -46 -27 -13 -56 -62 -48
-83 4 -9 1 -34 -6 -56 -13 -37 -12 -41 25 -101 40 -66 164 -230 244 -321 89
-103 121 -143 169 -209 29 -41 86 -98 147 -148 55 -44 113 -92 129 -106 26
-22 40 -28 59 -25 4 0 7 -6 7 -14 0 -8 5 -15 10 -15 6 0 10 -4 10 -10 0 -5 -4
-10 -9 -10 -9 0 -106 71 -166 121 -112 93 -168 145 -182 167 -30 46 -121 159
-145 178 -13 11 -39 41 -58 67 -19 26 -47 61 -62 77 -16 16 -28 32 -28 37 0 5
-9 15 -20 23 -11 8 -20 20 -20 27 0 6 -9 18 -19 25 -11 8 -25 26 -32 41 -7 15
-16 27 -21 27 -4 0 -8 6 -8 13 0 6 -12 23 -25 36 -14 13 -25 33 -25 45 0 11
-4 28 -9 35 -6 10 -5 27 4 48 8 18 10 35 5 38 -14 9 8 68 33 88 12 10 42 29
67 42 25 13 42 24 37 25 -8 0 -118 -51 -157 -73 -14 -8 -68 -35 -120 -60 -52
-25 -165 -89 -250 -143 -85 -53 -192 -118 -237 -144 -45 -26 -79 -51 -75 -55
4 -5 1 -5 -5 -1 -15 8 -269 -122 -265 -136 1 -5 -2 -7 -7 -3 -6 3 -51 -15
-101 -40 -77 -39 -90 -48 -80 -61 8 -8 8 -14 2 -14 -6 0 -12 5 -14 11 -2 5
-11 7 -21 4 -9 -4 -14 -11 -11 -16 3 -5 -1 -6 -9 -3 -8 3 -29 -9 -48 -28 -18
-18 -29 -27 -25 -20 11 18 -36 -8 -151 -83 l-92 -60 0 -277 c-1 -184 2 -278 9
-278 5 0 10 -5 10 -11 0 -5 -4 -7 -10 -4 -5 3 -10 -3 -10 -14 0 -11 5 -23 10
-26 6 -3 10 -14 10 -23 0 -15 -2 -15 -10 -2 -9 13 -10 13 -10 -1 0 -8 5 -27
12 -41 l12 -26 225 0 c157 -1 229 2 239 10 10 9 15 9 21 0 8 -13 158 -15 166
-1 4 5 -4 9 -16 9 -22 0 -22 0 -3 19 12 11 21 14 24 7 3 -6 16 -12 29 -14 20
-2 22 0 11 13 -11 13 -7 15 23 15 25 0 37 -5 40 -18 3 -10 5 -5 6 12 1 27 0
28 -35 23 -30 -5 -34 -4 -24 8 6 8 8 20 4 27 -4 7 2 5 13 -5 14 -12 23 -15 28
-8 3 6 -1 14 -9 17 -9 3 -16 10 -16 14 0 5 12 3 26 -4 16 -9 45 -12 82 -9 38
3 54 2 47 -5 -5 -6 -19 -12 -29 -14 -11 -1 -21 -10 -23 -18 -3 -9 -1 -11 4 -5
9 12 133 14 133 3 0 -5 0 -12 0 -18 0 -5 -16 -9 -35 -8 -19 1 -35 5 -35 10 0
4 -5 8 -11 8 -5 0 -7 -5 -3 -12 4 -6 3 -9 -2 -5 -5 3 -34 -4 -64 -14 -30 -11
-70 -20 -88 -21 -17 0 -34 -4 -37 -9 -3 -4 46 -8 110 -8 81 1 115 5 112 12 -2
7 12 17 32 24 30 10 37 10 50 -6 9 -10 30 -21 48 -24 26 -5 31 -4 26 9 -3 9
-13 14 -24 11 -11 -3 -21 -2 -24 3 -3 4 8 10 23 13 25 5 32 0 47 -28 3 -6 7
-5 11 3 3 6 10 10 15 7 5 -4 6 2 2 11 -4 12 -3 15 5 10 7 -4 12 -3 12 2 0 5
11 7 25 4 25 -4 35 12 13 21 -8 4 -7 6 4 6 9 1 18 -3 20 -7 1 -5 17 -12 33
-16 22 -5 26 -4 15 4 -13 9 -13 11 0 21 12 8 9 9 -12 5 -34 -8 -35 0 -6 25 23
20 25 20 -96 10 -6 -1 -1 -8 10 -16 18 -14 18 -14 -8 -15 -18 0 -28 5 -28 15
0 8 -4 15 -10 15 -5 0 -6 -8 -3 -17 6 -16 5 -16 -10 -4 -36 29 -13 39 100 46
67 4 73 3 73 -15 0 -21 16 -28 22 -10 2 5 12 11 23 13 11 1 25 6 30 9 15 9 29
-3 33 -29 2 -17 -2 -23 -14 -23 -13 0 -15 -3 -7 -11 13 -13 33 -4 33 16 0 9
22 21 56 31 30 9 58 22 61 30 3 8 14 14 24 14 12 0 16 5 13 15 -4 8 -1 15 5
15 6 0 11 -4 11 -10 0 -15 26 -12 39 4 9 11 8 15 -5 20 -9 3 -20 4 -25 0 -5
-3 -29 -2 -53 1 -37 6 -43 10 -39 26 4 15 2 18 -12 13 -13 -5 -16 -2 -13 13 1
11 -3 27 -11 36 -11 14 -11 18 3 23 13 5 14 9 5 21 -7 8 -15 10 -18 6 -3 -5
-22 -19 -41 -31 -19 -12 -29 -22 -22 -22 6 0 12 -8 12 -18 0 -10 13 -31 30
-45 31 -28 40 -53 16 -44 -10 4 -14 0 -11 -14 3 -17 -2 -19 -49 -19 -28 0 -58
-6 -65 -13 -10 -10 -11 -9 -6 6 4 9 11 17 17 17 5 0 7 4 4 8 -3 5 -27 5 -53 0
-26 -5 -59 -9 -73 -10 -14 0 -27 -4 -30 -8 -3 -5 -25 -2 -49 6 -34 11 -46 12
-58 3 -11 -10 -11 -14 -1 -20 9 -6 8 -10 -5 -15 -24 -9 -21 -27 3 -19 21 7 28
-10 7 -18 -14 -5 -49 6 -48 16 2 21 -1 27 -19 37 -15 8 -25 7 -40 -3 -11 -8
-17 -17 -13 -20 3 -4 1 -7 -5 -7 -17 0 -15 20 3 26 27 11 16 22 -21 21 -31 -1
-34 -3 -18 -14 16 -12 16 -13 0 -19 -10 -4 -22 0 -29 9 -7 8 -19 17 -27 20
-12 4 -11 6 3 6 9 1 17 5 17 9 0 20 -14 20 -40 2 -21 -15 -27 -26 -23 -41 6
-21 5 -21 -21 -4 -16 11 -31 14 -39 8 -15 -10 -87 -10 -104 0 -19 12 -36 -2
-23 -18 7 -8 26 -12 53 -9 32 3 37 2 22 -5 -32 -15 -72 -13 -79 5 -5 13 -9 14
-20 5 -9 -7 -17 -8 -20 -3 -3 6 1 12 9 16 8 3 15 12 15 20 0 21 -57 18 -98 -5
-17 -10 -32 -15 -32 -10 0 11 -49 11 -56 0 -8 -14 -24 -11 -21 4 1 6 -4 11
-12 9 -67 -15 -67 -15 -66 11 0 14 4 29 8 33 4 5 5 1 2 -7 -7 -18 27 -33 42
-19 16 15 61 20 67 7 4 -7 8 -8 11 -2 3 6 22 10 42 9 21 -1 42 1 48 4 21 13
59 10 72 -6 12 -15 13 -14 7 12 -5 22 -4 27 6 21 10 -6 12 0 8 23 -2 17 -1 29
4 26 4 -3 8 -1 8 4 0 16 -30 23 -51 12 -23 -13 -24 -24 -2 -46 16 -16 16 -16
-5 -10 -13 5 -22 3 -22 -3 0 -6 -7 -11 -15 -11 -18 0 -20 16 -2 24 6 3 0 3
-15 1 -38 -5 -36 14 2 22 17 3 35 14 41 25 5 10 15 15 21 12 7 -5 9 -2 6 7 -4
10 2 15 18 17 17 1 22 -2 18 -13 -7 -16 11 -21 21 -5 7 11 35 2 35 -12 0 -6
-6 -5 -15 2 -8 7 -15 9 -16 4 0 -5 -2 -19 -3 -31 -2 -18 0 -20 15 -12 26 13
27 12 26 -26 -1 -26 -4 -32 -13 -24 -9 7 -19 6 -33 -3 -26 -16 -27 -30 -4 -27
10 1 25 0 33 -4 48 -17 52 -17 45 0 -11 30 -11 35 5 38 8 2 31 6 50 10 62 11
56 24 -13 26 -64 3 -60 19 4 19 46 0 51 2 46 20 -3 11 0 18 7 17 6 -1 11 12
11 33 0 29 3 34 20 32 11 -2 24 -10 28 -18 5 -9 16 -12 28 -9 13 4 19 2 19 -9
0 -9 6 -16 13 -16 9 0 12 -10 9 -30 -2 -17 -9 -30 -14 -30 -5 0 -6 5 -3 10 3
6 1 10 -4 10 -6 0 -11 -7 -11 -15 0 -8 -9 -15 -20 -15 -17 0 -18 3 -8 25 6 14
15 25 20 25 4 0 8 8 8 18 -1 15 -2 16 -13 1 -7 -9 -23 -19 -36 -24 -13 -4 -19
-10 -14 -14 6 -3 14 -17 18 -30 5 -16 4 -21 -4 -17 -18 12 -13 -2 10 -25 16
-16 23 -18 29 -9 4 7 12 10 18 6 17 -11 72 -14 78 -5 3 5 20 9 39 9 19 0 37 5
40 10 4 6 14 10 23 8 10 -1 23 1 29 5 7 5 13 4 13 -2 0 -5 -5 -13 -10 -16 -6
-3 -10 -11 -10 -17 0 -6 11 1 24 15 15 17 31 24 40 21 9 -3 16 -2 16 4 0 5 17
8 37 6 36 -4 37 -3 19 11 -15 11 -16 15 -5 15 8 0 24 -7 35 -15 16 -13 17 -16
4 -25 -8 -6 -23 -8 -32 -6 -10 2 -18 0 -18 -5 0 -5 14 -9 30 -9 17 0 30 4 30
9 0 11 49 11 56 0 7 -12 44 -12 44 0 0 18 -12 41 -22 41 -6 0 -8 -7 -4 -15 5
-14 2 -13 -24 0 -17 9 -30 22 -30 30 0 8 -5 15 -11 15 -5 0 -7 4 -4 10 4 6 -6
10 -24 10 -16 0 -33 -5 -36 -10 -4 -7 -12 -7 -25 0 -25 13 -53 13 -45 -1 4 -6
13 -8 20 -5 7 2 15 -4 18 -14 6 -22 -10 -30 -38 -19 -11 4 -14 8 -7 8 23 2 12
19 -19 30 -40 14 -39 14 -39 -4 0 -8 -9 -24 -19 -34 -11 -11 -17 -22 -13 -25
3 -3 -5 -6 -17 -6 -17 0 -21 4 -17 15 3 8 1 15 -5 15 -6 0 -7 5 -3 11 3 6 15
9 25 6 10 -3 24 2 31 10 11 13 5 15 -45 10 -31 -3 -60 -1 -63 4 -3 5 11 9 30
9 20 0 36 3 36 8 0 15 48 30 59 19 8 -8 11 -5 11 11 0 13 6 22 14 22 8 0 22
10 30 22 22 31 31 16 11 -16 -17 -26 -17 -26 11 -25 17 1 22 3 12 6 -24 6 -23
20 2 33 15 8 20 8 20 -2 0 -22 57 -15 82 9 12 13 17 23 11 23 -7 0 -18 -6 -25
-14 -13 -13 -48 -8 -89 14 -21 11 -56 2 -63 -16 -3 -8 -12 -14 -21 -14 -8 0
-15 -4 -15 -10 0 -6 -9 -6 -26 0 -33 13 -54 13 -34 0 10 -7 11 -10 2 -10 -7 0
-15 7 -18 15 -4 8 -22 23 -41 32 -30 14 -36 14 -44 2 -12 -19 -11 -26 3 -35 8
-5 9 -2 5 9 -3 10 -2 17 3 17 6 0 10 -4 10 -9 0 -5 9 -11 20 -13 30 -4 29 -20
-2 -29 -21 -5 -25 -4 -21 7 4 12 0 12 -22 4 -36 -14 -37 -13 -24 12 7 12 12
37 11 55 -1 32 10 43 23 23 3 -5 16 -10 28 -10 16 0 18 3 9 9 -10 6 -9 10 7
14 16 4 21 0 21 -14 0 -26 8 -24 32 6 11 14 24 23 29 20 14 -9 11 -25 -6 -25
-26 0 -16 -17 12 -23 38 -7 48 1 28 23 -9 10 -14 23 -11 28 7 11 -22 25 -35
17 -5 -3 -18 -1 -29 5 -15 8 -20 8 -20 -2 0 -9 -3 -9 -12 0 -10 10 -10 15 2
22 12 8 11 10 -7 10 -16 0 -21 -4 -17 -15 9 -22 -21 -29 -54 -12 -20 9 -35 11
-46 5 -11 -6 -22 -6 -31 2 -15 13 -35 6 -35 -12 0 -7 5 -6 14 1 17 14 28 1 16
-19 -7 -12 -12 -12 -28 3 -24 22 -34 21 -63 -4 -23 -20 -23 -21 -6 -34 18 -13
18 -14 0 -23 -17 -10 -17 -11 1 -31 11 -12 14 -21 8 -21 -6 0 -19 -3 -29 -6
-14 -5 -15 -4 -4 4 12 9 12 13 2 26 -15 18 -41 22 -41 6 0 -5 -8 -6 -17 -3
-14 5 -11 10 16 20 39 16 36 24 -8 25 -34 1 -41 12 -14 22 11 5 13 10 6 17 -7
7 -22 7 -47 1 -20 -6 -38 -7 -41 -2 -5 9 25 22 41 19 5 -1 17 1 27 5 27 12 46
0 40 -24 -5 -18 -2 -21 18 -18 16 2 23 9 21 21 -2 11 4 17 18 17 11 0 20 4 20
10 0 5 16 12 35 16 19 3 39 13 44 22 5 8 21 16 37 17 16 1 36 3 44 3 19 2 21
42 3 42 -7 0 -13 5 -13 10 0 6 11 10 24 10 14 0 27 4 31 10 3 5 12 7 20 3 8
-3 15 -1 15 5 0 12 -35 20 -75 17 -29 -2 -30 -4 -27 -44 2 -27 -1 -41 -8 -41
-8 0 -10 10 -8 25 3 14 1 25 -3 25 -5 0 -9 -7 -9 -15 0 -29 -64 -40 -112 -20
-11 4 -18 3 -18 -4 0 -8 -6 -8 -20 1 -16 10 -22 9 -40 -11 -13 -16 -20 -19
-20 -10 0 10 -11 15 -35 15 -26 0 -34 -4 -30 -14 2 -7 0 -10 -5 -7 -20 12 -11
45 13 46 12 0 52 2 89 3 39 2 68 0 68 -6 0 -5 10 -8 23 -6 22 4 24 9 12 40 -6
16 -1 18 38 18 25 0 49 5 52 10 9 15 -112 5 -130 -10 -8 -7 -22 -10 -30 -6 -8
3 -15 1 -15 -4 0 -6 -4 -10 -8 -10 -5 0 -9 7 -9 15 0 10 10 15 31 15 28 0 75
19 51 20 -12 1 36 29 50 29 6 1 4 -3 -3 -8 -10 -6 -9 -10 7 -14 14 -3 21 0 21
9 0 8 5 14 10 14 6 0 10 -4 10 -10 0 -5 8 -10 18 -10 10 0 24 -6 31 -12 10
-11 15 -9 27 7 8 11 23 19 32 17 15 -2 15 -1 1 7 -9 6 -32 11 -52 13 -36 2
-42 18 -6 18 10 0 27 8 36 17 10 10 27 17 38 16 53 -7 65 -10 72 -17 4 -4 -3
-9 -15 -13 -12 -3 -22 -9 -22 -14 0 -5 -7 -9 -15 -9 -8 0 -15 -4 -15 -10 0 -5
10 -10 23 -10 17 0 19 -2 7 -10 -11 -7 -12 -12 -3 -21 9 -9 9 -18 2 -32 -8
-13 -8 -22 0 -30 8 -8 11 -6 11 8 0 16 2 17 10 5 10 -17 15 -14 24 18 6 16 3
22 -8 22 -9 0 -16 5 -16 10 0 16 18 12 38 -10 21 -23 82 -39 82 -21 0 6 -5 11
-11 11 -6 0 -9 5 -7 12 4 12 24 18 74 20 22 1 28 5 21 13 -6 6 -27 10 -47 9
-29 -1 -36 2 -36 17 0 11 4 19 8 19 4 0 8 4 8 10 0 5 -7 7 -15 4 -23 -9 -18 6
10 28 14 11 25 27 25 35 0 14 -2 14 -19 -1 -10 -9 -25 -16 -32 -14 -9 2 -14
-6 -14 -19 0 -11 -3 -25 -7 -29 -5 -4 -8 1 -8 12 0 11 -9 27 -20 37 -11 9 -20
12 -20 6 0 -7 -11 -9 -27 -6 -16 4 -49 10 -76 15 -60 11 -67 18 -25 28 32 7
32 8 8 14 -34 9 -50 2 -62 -29 -6 -15 -12 -21 -15 -13 -6 15 -30 16 -35 0 -2
-6 -10 -8 -16 -4 -9 5 -8 12 4 24 29 29 65 42 114 42 33 0 50 5 54 15 3 8 12
15 21 15 17 0 20 16 4 25 -6 4 -8 13 -5 20 5 13 -25 32 -58 37 -11 2 -21 8
-23 14 -4 12 98 94 117 94 5 0 10 6 10 13 0 7 9 20 20 30 19 16 19 19 5 41
-15 23 -15 25 14 45 16 12 37 21 46 21 9 0 28 9 42 20 14 11 31 20 38 20 7 0
20 11 29 25 20 30 21 41 1 25 -8 -6 -20 -10 -27 -7 -8 3 -2 9 14 15 14 6 29
16 33 21 3 6 12 11 18 11 8 0 7 -4 -2 -9 -12 -8 -12 -12 -2 -25 18 -21 26 -20
50 6 17 17 23 19 36 8 10 -8 15 -9 15 -1 0 6 -4 11 -10 11 -20 0 -10 47 15 70
29 27 32 40 9 40 -8 0 -12 4 -9 10 6 10 60 8 72 -3 3 -4 1 -7 -5 -7 -6 0 -9
-7 -6 -15 4 -8 2 -15 -4 -15 -6 0 -12 6 -15 13 -3 6 -4 2 -4 -10 1 -13 8 -23
15 -23 10 0 12 -6 7 -18 -4 -9 -10 -30 -12 -47 -2 -16 -9 -40 -15 -51 -7 -15
-7 -27 1 -40 10 -17 10 -17 11 5 0 22 1 22 23 -10 31 -46 57 -99 57 -116 0
-10 6 -12 19 -8 14 4 27 -7 56 -47 21 -29 42 -54 47 -56 13 -5 10 -19 -8 -37
-9 -9 -13 -19 -10 -23 4 -3 11 0 17 8 8 13 11 12 20 -4 8 -13 14 -15 19 -7 5
9 10 8 20 -4 11 -13 10 -15 -4 -9 -28 11 -18 -24 19 -63 19 -20 35 -44 35 -52
0 -8 3 -11 6 -8 9 8 -16 67 -27 67 -5 0 -9 5 -9 10 0 17 14 11 48 -21 21 -19
31 -37 27 -47 -3 -9 3 -21 15 -29 11 -8 20 -21 20 -29 0 -9 7 -14 18 -12 9 2
16 -3 15 -9 -2 -7 4 -13 12 -13 8 0 19 -9 25 -19 13 -25 13 -34 0 -26 -5 3
-10 0 -10 -7 0 -7 17 -24 37 -38 45 -30 83 -65 83 -75 0 -15 77 -81 89 -77 8
3 11 0 7 -6 -6 -10 21 -27 37 -23 4 0 10 -6 13 -14 4 -8 12 -15 20 -15 8 0 19
-9 26 -20 7 -11 16 -20 20 -20 4 0 19 -11 34 -25 16 -14 44 -33 63 -42 20 -10
38 -20 41 -24 3 -4 35 -22 73 -39 37 -18 67 -37 67 -43 0 -6 3 -7 7 -4 3 4 12
2 20 -4 7 -6 13 -8 13 -3 0 5 4 3 9 -5 5 -8 16 -16 24 -17 8 -1 32 -10 53 -20
20 -10 53 -18 71 -18 18 0 33 -4 33 -8 0 -5 6 -8 13 -7 6 1 23 -2 37 -8 44
-20 64 -25 104 -28 21 -2 42 -9 46 -16 9 -14 50 -19 66 -7 17 13 44 -2 44 -23
0 -27 -20 -24 -21 4 -1 16 -2 18 -6 5 -4 -17 -44 -22 -68 -9 -10 5 -34 9 -77
12 -16 1 -28 6 -28 12 0 5 -7 7 -15 3 -15 -5 -65 7 -97 25 -11 5 -18 5 -18 0
0 -5 26 -17 58 -26 31 -9 65 -21 74 -26 10 -5 32 -9 50 -9 18 0 57 -7 85 -14
32 -8 55 -10 59 -5 3 5 9 7 14 4 4 -3 10 4 13 15 5 21 31 25 74 14 13 -4 20
-11 16 -20 -3 -9 -13 -12 -23 -9 -10 3 -21 1 -24 -4 -4 -6 31 -9 95 -8 81 2
103 5 106 17 4 13 3 13 -6 0 -8 -12 -13 -12 -31 5 -16 14 -19 15 -15 3 5 -12
-2 -15 -39 -15 -26 0 -46 4 -46 8 0 5 3 9 8 10 4 0 16 2 27 5 11 2 47 6 80 9
33 3 71 8 83 11 15 3 21 1 17 -6 -8 -13 -2 -13 37 4 34 15 197 61 258 73 19 3
48 14 64 24 16 10 33 16 38 13 4 -3 8 2 8 11 0 10 6 15 13 12 17 -6 52 8 53
22 3 24 5 26 14 11 6 -9 10 -11 10 -3 0 7 7 10 15 6 10 -3 15 -1 13 7 -2 6 8
19 22 28 23 16 24 16 17 -1 -5 -13 -3 -17 5 -14 7 2 12 12 10 21 -3 15 7 23
40 31 50 12 57 17 48 35 -8 15 -2 25 33 54 23 20 38 36 32 36 -17 0 -85 -68
-85 -86 0 -14 -3 -14 -15 -4 -14 12 -14 15 1 31 24 27 12 33 -19 9 -14 -11
-29 -20 -34 -20 -18 0 -65 -58 -58 -71 5 -8 4 -10 -4 -5 -6 4 -17 3 -24 -2
-30 -24 -109 -61 -141 -68 -20 -3 -36 -9 -36 -13 0 -4 -6 -8 -12 -8 -7 0 -51
-12 -97 -27 -46 -14 -115 -31 -155 -36 -39 -6 -78 -12 -86 -15 -22 -6 -90 -14
-135 -16 -48 -2 -221 20 -252 32 -13 5 -29 6 -36 3 -8 -3 -54 15 -103 39 -49
24 -107 50 -129 57 -68 22 -242 109 -290 146 -25 18 -50 34 -55 34 -6 0 -10 5
-10 10 0 17 19 11 67 -23 51 -36 211 -117 231 -117 7 0 12 -4 12 -10 0 -5 7
-10 16 -10 15 0 113 -38 156 -61 10 -5 24 -9 32 -9 8 0 17 -7 20 -16 4 -9 13
-14 21 -10 8 3 15 0 15 -6 0 -7 13 -9 34 -5 19 3 36 1 38 -4 7 -21 253 -35
348 -19 222 37 454 109 530 165 25 18 59 48 75 66 17 17 80 65 141 105 l112
72 28 72 c15 40 47 101 71 137 23 36 44 79 47 97 2 17 9 76 15 131 9 76 20
118 47 180 20 44 43 104 52 134 15 53 15 54 -7 72 -13 11 -29 19 -36 19 -18 0
-221 198 -217 211 1 6 -2 8 -8 4 -5 -3 -10 -2 -10 3 0 5 -24 22 -52 37 -39 21
-72 31 -123 35 l-70 5 -3 55 c-2 30 2 143 8 249 l13 195 44 65 c89 130 150
280 200 496 14 60 33 119 43 130 30 34 40 62 40 111 0 29 9 67 24 98 14 28 34
88 45 133 12 45 37 114 56 154 38 80 42 117 26 283 -10 111 -42 131 -135 81
-53 -28 -59 -19 -27 43 10 20 29 78 42 127 21 80 24 112 24 300 0 232 -11 314
-67 480 -26 78 -78 187 -112 234 -27 38 -227 231 -239 231 -7 0 -31 18 -52 40
-21 22 -43 40 -47 40 -5 0 -33 18 -62 40 -30 21 -80 53 -113 71 -76 41 -278
118 -324 124 -21 2 -63 13 -95 23 -65 22 -219 26 -329 10z m226 -805 c13 -16
12 -17 -3 -4 -10 7 -18 15 -18 17 0 8 8 3 21 -13z m-84 -29 c-3 -3 -12 -4 -19
-1 -8 3 -5 6 6 6 11 1 17 -2 13 -5z m53 -15 c0 -5 -4 -9 -8 -9 -5 0 -9 7 -9
15 0 8 4 12 9 9 4 -3 8 -9 8 -15z m-85 -9 c3 -6 -1 -7 -9 -4 -9 3 -16 1 -16
-5 0 -6 6 -11 13 -12 6 -1 21 -2 32 -3 15 -1 19 -7 17 -25 -2 -18 2 -22 14
-17 11 4 14 1 12 -12 -2 -12 -11 -16 -30 -14 -31 4 -101 -26 -92 -39 9 -15 24
-10 24 7 0 10 6 14 15 10 8 -3 15 -1 15 4 0 6 5 10 11 10 5 0 7 -4 4 -10 -4
-6 1 -7 11 -3 11 4 15 2 11 -4 -4 -6 0 -16 8 -23 29 -24 7 -58 -28 -44 -8 3
-25 -4 -38 -15 -17 -14 -20 -20 -9 -21 13 0 13 -1 0 -10 -19 -12 -19 -42 0
-57 21 -17 33 -16 26 2 -4 12 -2 13 13 5 14 -7 22 -6 31 5 13 16 13 16 -30 19
-8 1 -20 -5 -27 -14 -11 -13 -12 -12 -13 7 0 12 4 24 10 28 5 3 7 12 3 20 -5
15 10 19 49 16 9 -1 19 3 23 9 3 6 10 8 15 5 11 -7 7 14 -7 41 -10 16 -8 22 7
32 11 6 17 18 14 25 -3 8 2 19 10 26 12 10 20 9 40 -4 14 -10 26 -21 26 -26 0
-5 5 -9 11 -9 6 0 9 6 6 13 -3 8 4 14 16 15 17 1 19 -1 7 -8 -12 -8 -12 -10
-1 -10 8 0 11 -7 8 -20 -3 -13 2 -25 16 -35 11 -8 17 -18 13 -22 -4 -4 -10 -2
-14 4 -4 6 -19 11 -34 11 -15 0 -25 -4 -22 -9 6 -11 1 -11 -20 -3 -9 3 -13 10
-10 15 3 5 0 9 -5 9 -13 0 -13 -3 -5 -24 3 -9 10 -16 16 -16 5 0 16 -7 24 -15
14 -13 13 -15 -5 -15 -12 0 -21 -4 -21 -9 0 -5 12 -8 28 -6 15 1 30 -2 34 -9
6 -8 8 -7 8 2 0 7 5 10 10 7 6 -3 10 -3 10 2 0 4 -14 14 -30 21 -17 8 -27 18
-24 24 4 6 10 5 15 -3 5 -8 9 -10 9 -5 0 5 6 3 14 -3 11 -9 15 -9 20 1 3 7 4
4 3 -7 -1 -11 4 -20 13 -21 8 0 23 -2 33 -2 10 -1 15 -7 12 -12 -5 -8 -11 -7
-20 0 -18 15 -55 -4 -55 -27 0 -13 -3 -13 -15 -3 -9 8 -15 9 -15 2 0 -6 5 -14
10 -17 6 -3 10 -11 10 -17 0 -7 -4 -7 -12 0 -7 5 -24 13 -38 17 -22 7 -23 6
-11 -9 7 -9 10 -16 7 -16 -4 0 -4 -5 -1 -10 5 -8 11 -7 21 1 11 9 14 8 14 -4
0 -8 -5 -17 -11 -19 -7 -2 -5 -9 5 -17 14 -12 16 -12 11 1 -4 9 1 18 12 22 9
4 14 4 11 0 -4 -3 -1 -13 7 -20 15 -16 29 -19 21 -5 -3 5 0 11 7 14 8 3 12 -6
13 -25 1 -16 9 -37 19 -46 17 -16 17 -16 12 0 -8 22 11 35 19 13 6 -14 8 -14
31 0 24 16 24 16 13 -6 -11 -19 -10 -21 4 -16 19 7 21 -4 4 -21 -7 -7 -9 -12
-4 -12 12 0 36 27 29 34 -4 3 -1 6 6 6 8 0 10 8 6 23 l-7 22 17 -23 c11 -15
23 -21 34 -17 16 5 17 2 7 -29 -13 -41 -20 -37 -25 17 -1 4 -5 7 -10 7 -5 0
-7 -8 -4 -19 3 -14 -6 -24 -38 -40 -23 -12 -48 -20 -55 -17 -8 3 -13 2 -13 -2
3 -20 -2 -24 -13 -11 -7 8 -12 12 -11 10 3 -5 -35 -34 -63 -49 -19 -10 -21 -9
-21 14 0 20 2 22 13 13 8 -7 17 -10 19 -7 11 11 -22 27 -44 21 -23 -6 -23 -7
-6 -20 11 -7 14 -13 7 -13 -6 0 -9 -7 -5 -17 3 -12 0 -10 -11 5 -19 24 -30 22
-47 -10 -10 -18 -9 -20 5 -15 24 10 19 -6 -10 -26 -25 -18 -26 -18 -46 0 -14
11 -22 14 -25 7 -5 -15 -52 5 -48 21 1 5 0 6 -3 2 -2 -4 -11 -2 -20 5 -12 9
-11 6 2 -10 18 -20 15 -27 -8 -23 -5 1 -12 -3 -16 -10 -5 -8 -14 -5 -29 10
-11 11 -28 21 -37 21 -15 0 -15 2 -1 23 9 14 12 29 7 36 -5 10 -9 10 -14 2 -4
-6 -12 -8 -18 -5 -7 4 -8 2 -4 -4 4 -6 14 -8 24 -5 15 6 14 3 -2 -16 -19 -21
-20 -21 -30 -4 -13 21 -47 27 -58 10 -5 -7 -8 -1 -8 16 0 29 -9 34 -28 15 -9
-9 -12 -9 -12 -1 0 7 5 15 11 19 16 10 -17 27 -34 18 -6 -4 -2 4 9 17 12 13
27 33 33 44 l13 20 -7 -20 c-6 -19 -5 -19 11 -3 15 15 15 19 3 34 -9 12 -10
15 -1 10 7 -4 12 -2 12 6 0 10 2 10 9 -1 5 -8 14 -10 22 -6 8 5 4 -3 -7 -16
-26 -29 -27 -55 -3 -55 10 0 15 4 13 8 -3 4 4 12 15 17 29 16 39 13 17 -4 -11
-8 -18 -16 -15 -18 2 -1 21 -15 42 -30 39 -29 47 -26 22 10 -15 21 -11 58 5
48 5 -3 15 4 24 16 11 16 22 20 40 17 14 -3 26 -1 26 3 0 5 -13 9 -28 9 -15 0
-33 5 -39 11 -8 8 -13 5 -18 -12 -8 -24 -22 -39 -39 -39 -5 0 -2 8 7 18 21 23
21 41 1 70 -8 12 -12 27 -8 33 4 7 1 10 -7 7 -8 -3 -14 -11 -14 -19 0 -8 -5
-21 -10 -29 -7 -13 -6 -13 7 -2 11 9 18 10 23 2 3 -5 2 -10 -2 -10 -5 0 -9
-10 -10 -22 -2 -22 -1 -22 12 2 14 24 14 24 15 3 0 -12 -9 -27 -19 -33 -17 -9
-21 -5 -31 25 -7 23 -8 45 -2 68 6 22 6 40 0 52 -8 14 -8 16 2 10 10 -6 11 -3
6 11 -5 10 -10 28 -13 39 -4 18 -3 18 6 3 7 -9 20 -15 31 -13 24 5 40 -39 21
-58 -14 -14 -14 -27 -1 -27 6 0 10 7 10 15 0 8 3 14 8 14 19 -3 21 3 7 25 -12
18 -13 29 -5 52 10 26 10 27 -7 13 -18 -16 -53 -32 -53 -24 0 2 9 13 21 24 20
18 18 48 -2 36 -5 -4 -9 -1 -9 5 0 7 7 9 16 6 10 -4 23 3 36 19 10 13 22 24
26 24 24 -4 42 3 42 16 0 8 -6 12 -14 9 -15 -6 -16 11 -3 34 10 15 24 16 32 2z
m48 3 c-7 -2 -19 -2 -25 0 -7 3 -2 5 12 5 14 0 19 -2 13 -5z m128 -2 c-7 -5
-13 -20 -13 -33 0 -14 -6 -25 -14 -25 -7 0 -11 4 -8 8 2 4 -4 13 -13 19 -16
10 -16 10 3 5 16 -4 23 0 27 15 3 11 11 20 19 20 11 0 11 -2 -1 -9z m-281 -10
c0 -5 -7 -12 -16 -15 -14 -5 -15 -4 -4 9 14 17 20 19 20 6z m28 -26 c-3 -3 -9
2 -12 12 -6 14 -5 15 5 6 7 -7 10 -15 7 -18z m159 3 c1 -10 -2 -18 -8 -18 -5
0 -9 2 -9 4 0 2 -2 11 -5 19 -3 7 0 14 8 14 7 0 14 -9 14 -19z m-177 -38 c-24
-15 -36 -11 -14 4 10 8 21 12 24 10 2 -3 -2 -9 -10 -14z m360 8 c0 -4 -5 -8
-11 -8 -6 0 -9 -7 -6 -15 8 -20 -8 -28 -23 -10 -10 12 -10 15 0 15 7 0 10 6 7
13 -3 8 3 13 14 13 11 0 19 -4 19 -8z m-420 -68 c-13 -8 -13 -10 -1 -10 8 0
12 -3 8 -6 -3 -3 -11 -3 -17 1 -8 5 -8 11 1 21 6 8 14 12 18 9 3 -3 -1 -10 -9
-15z m410 -12 c0 -12 -28 3 -34 18 -4 11 -2 12 14 1 11 -6 20 -15 20 -19z m16
-32 c-1 -24 -26 -25 -26 -1 0 7 6 16 13 18 6 3 13 6 13 6 1 1 1 -10 0 -23z
m-483 -13 c-9 -3 -10 -10 -3 -23 7 -13 6 -21 -5 -30 -16 -13 -35 -6 -34 13 0
9 2 8 6 -1 6 -16 23 -6 23 14 0 8 -4 12 -10 9 -5 -3 -10 -3 -10 1 0 10 34 33
40 27 3 -3 -1 -8 -7 -10z m47 -17 c0 -2 -7 -6 -15 -10 -8 -3 -15 -1 -15 4 0 6
7 10 15 10 8 0 15 -2 15 -4z m-125 -36 c3 -5 1 -10 -4 -10 -6 0 -11 5 -11 10
0 6 2 10 4 10 3 0 8 -4 11 -10z m99 -15 c-17 -26 -24 -31 -24 -16 0 10 28 41
36 41 2 0 -3 -11 -12 -25z m1 -35 c-10 -11 -20 -18 -22 -16 -6 5 30 44 36 39
2 -1 -4 -12 -14 -23z m454 11 c9 -16 8 -18 -8 -14 -12 3 -17 11 -14 19 7 18
10 18 22 -5z m26 -51 c3 -5 1 -10 -4 -10 -6 0 -11 5 -11 10 0 6 2 10 4 10 3 0
8 -4 11 -10z m-527 -25 c-3 -3 -9 2 -12 12 -6 14 -5 15 5 6 7 -7 10 -15 7 -18z
m86 -34 c3 -4 -6 -13 -20 -19 -23 -11 -24 -10 -14 8 11 21 25 26 34 11z m-104
-5 c0 -2 -7 -7 -16 -10 -8 -3 -12 -2 -9 4 6 10 25 14 25 6z m143 -37 c-4 -15
-9 -17 -17 -9 -8 8 -7 13 4 20 8 5 16 10 17 10 0 0 -1 -9 -4 -21z m-178 -9 c3
-5 1 -10 -4 -10 -6 0 -11 5 -11 10 0 6 2 10 4 10 3 0 8 -4 11 -10z m115 -104
c0 -3 -4 -8 -10 -11 -5 -3 -10 -1 -10 4 0 6 5 11 10 11 6 0 10 -2 10 -4z m180
-71 c-7 -8 -17 -15 -22 -15 -11 0 14 29 26 30 5 0 3 -7 -4 -15z m34 -4 c3 -5
-1 -11 -9 -14 -9 -4 -12 -1 -8 9 6 16 10 17 17 5z m603 -18 c5 3 10 -4 10 -15
1 -12 -6 -22 -17 -25 -11 -3 -18 -9 -15 -13 3 -4 -11 -7 -30 -7 -24 1 -34 5
-31 13 3 7 -3 15 -12 17 -16 4 -16 5 0 6 9 0 20 -3 23 -9 3 -5 14 -10 23 -10
12 0 13 3 5 8 -10 6 -9 13 3 31 12 17 19 20 24 11 4 -7 12 -10 17 -7z m-1147
-93 c-21 -5 -22 -7 -8 -13 10 -3 24 0 32 9 14 13 17 13 28 -5 9 -15 15 -17 25
-9 9 7 13 7 13 -1 0 -16 -33 -27 -38 -13 -2 8 -17 10 -40 7 -20 -3 -57 -2 -82
4 l-45 9 40 1 c28 1 36 4 26 10 -11 7 -9 10 10 13 13 2 33 1 44 -1 18 -4 17
-6 -5 -11z m584 -110 c-1 -27 2 -38 10 -34 6 3 2 -2 -8 -10 -11 -9 -30 -14
-43 -12 -13 3 -21 1 -18 -5 4 -5 -6 -9 -22 -8 l-28 0 23 16 c12 8 22 20 22 26
0 5 -10 2 -21 -9 -16 -14 -23 -15 -26 -6 -3 6 -12 12 -21 12 -15 0 -15 2 -2
10 13 9 13 11 0 20 -11 8 -7 9 14 4 19 -5 27 -3 22 4 -4 6 2 8 16 4 13 -3 19
-1 15 5 -4 6 4 11 20 11 l26 0 -24 -19 c-13 -10 -18 -19 -11 -19 8 0 23 11 35
25 12 13 22 25 23 25 0 0 -1 -18 -2 -40z m-604 10 c0 -5 -2 -10 -4 -10 -3 0
-8 5 -11 10 -3 6 -1 10 4 10 6 0 11 -4 11 -10z m863 -20 c-16 -28 -33 -39 -33
-23 0 7 41 53 47 53 2 0 -4 -13 -14 -30z m-643 -43 c0 -13 -29 12 -42 37 -10
19 -8 18 16 -3 14 -14 26 -29 26 -34z m807 12 c1 -32 8 -48 34 -75 27 -28 40
-34 75 -34 34 0 49 6 73 31 29 29 35 44 34 97 0 12 2 22 4 22 13 0 61 -32 79
-52 l20 -24 -25 -26 c-47 -47 -89 -62 -176 -62 -80 1 -186 30 -210 59 -5 7
-19 15 -30 19 -16 5 -15 3 5 -14 18 -14 21 -20 9 -20 -9 0 -19 3 -23 8 -4 4
-13 7 -18 7 -27 0 -15 23 24 45 78 43 112 60 118 60 4 0 7 -18 7 -41z m123 6
c0 -17 -2 -18 -24 -9 -23 9 -20 24 4 24 11 0 20 -7 20 -15z m-1037 -29 c24
-17 41 -51 28 -59 -3 -2 -1 -2 6 -1 7 2 15 -1 18 -5 2 -5 -7 -12 -23 -16 -15
-3 -55 -17 -89 -31 -34 -13 -79 -24 -100 -23 l-38 1 32 9 c46 13 85 64 83 108
-1 20 -2 39 -1 43 1 10 54 -7 84 -26z m777 31 c0 -2 -12 -14 -27 -28 l-28 -24
24 28 c23 25 31 32 31 24z m-694 -29 l19 -21 -27 18 c-29 18 -34 25 -20 25 5
0 17 -10 28 -22z m-382 -29 c-3 -25 3 -38 30 -65 19 -19 41 -34 50 -34 9 0 16
-4 16 -10 0 -26 -114 5 -140 38 -26 32 -25 56 2 82 32 29 46 25 42 -11z m146
23 c0 -14 -11 -21 -26 -15 -21 8 -17 23 6 23 11 0 20 -4 20 -8z m604 -16 c-3
-8 -12 -17 -20 -20 -8 -3 -13 -2 -9 3 3 5 2 11 -2 14 -5 2 -3 2 4 1 7 -2 15 1
18 6 9 15 15 12 9 -4z m-384 -16 c12 -7 10 -9 -8 -7 -12 0 -22 5 -22 9 0 11
12 10 30 -2z m769 -97 c26 -25 22 -29 -12 -12 -34 18 -67 51 -61 61 6 9 24 -3
73 -49z m59 31 c12 -4 22 -10 22 -16 0 -5 -9 -4 -20 2 -11 6 -25 8 -30 5 -5
-3 -11 -1 -15 5 -7 11 9 13 43 4z m-846 -11 c-6 -2 -10 -8 -7 -13 3 -5 -7 -18
-22 -30 -16 -13 -29 -17 -31 -11 -2 6 -9 8 -14 5 -7 -4 -8 -2 -4 4 4 7 1 12
-9 12 -9 0 -13 5 -10 11 5 7 13 5 25 -6 15 -14 22 -14 38 -4 11 7 18 19 15 26
-3 8 2 13 13 12 11 0 14 -3 6 -6z m-32 -7 c0 -2 -7 -6 -15 -10 -8 -3 -15 -1
-15 4 0 6 7 10 15 10 8 0 15 -2 15 -4z m930 -6 c0 -5 -2 -10 -4 -10 -3 0 -8 5
-11 10 -3 6 -1 10 4 10 6 0 11 -4 11 -10z m73 -7 c-7 -2 -19 -2 -25 0 -7 3 -2
5 12 5 14 0 19 -2 13 -5z m-1084 -17 c-2 -2 -18 -8 -34 -11 -21 -5 -27 -4 -20
3 6 5 19 12 30 14 20 4 32 1 24 -6z m978 -8 c10 -17 13 -38 4 -38 -3 0 -17 7
-30 16 -18 13 -20 18 -10 25 19 12 27 11 36 -3z m-957 -13 c0 -2 -15 -12 -32
-20 l-33 -16 25 20 c24 20 40 26 40 16z m1030 -5 c0 -5 -7 -7 -15 -4 -8 4 -15
8 -15 10 0 2 7 4 15 4 8 0 15 -4 15 -10z m14 -31 c10 -9 -8 -6 -41 5 -13 4
-23 11 -23 16 0 9 46 -6 64 -21z m21 21 c3 -6 -1 -7 -9 -4 -18 7 -21 14 -7 14
6 0 13 -4 16 -10z m802 -92 c-2 -13 -4 -5 -4 17 -1 22 1 32 4 23 2 -10 2 -28
0 -40z m-51 -135 c-8 -15 -15 -22 -16 -15 0 17 20 55 27 49 2 -3 -2 -18 -11
-34z m-835 -59 c32 -18 59 -46 59 -60 0 -7 9 -18 21 -24 14 -8 17 -15 11 -23
-14 -18 -11 -46 5 -40 10 4 11 9 2 19 -9 11 -8 14 2 14 17 0 49 -20 33 -20 -7
0 0 -13 15 -29 15 -16 29 -24 32 -19 4 6 -13 31 -37 57 -42 44 -55 71 -34 71
6 0 9 -3 9 -7 -3 -21 3 -32 20 -38 10 -3 21 -14 24 -25 3 -11 16 -24 29 -30
32 -13 58 -35 58 -49 0 -7 5 -9 10 -6 16 10 12 -11 -5 -25 -12 -10 -15 -9 -15
7 0 11 -9 28 -20 38 -21 19 -28 7 -8 -13 10 -10 7 -17 -11 -35 -16 -15 -25
-18 -28 -9 -9 25 -21 11 -17 -20 2 -18 4 -41 5 -50 0 -10 5 -17 11 -15 6 1 13
-4 16 -12 3 -8 0 -11 -7 -7 -6 4 -11 2 -11 -3 0 -6 6 -11 13 -11 8 0 7 -4 -3
-10 -22 -14 -37 -12 -44 6 -5 14 -4 15 9 4 8 -7 15 -8 15 -2 0 5 -6 15 -14 21
-11 9 -15 8 -20 -5 -3 -9 -4 -19 -1 -24 3 -4 -4 -10 -16 -13 -17 -5 -18 -3 -8
9 10 12 9 13 -4 9 -8 -4 -18 -1 -22 4 -3 6 -11 9 -16 6 -5 -4 -19 1 -31 9 -12
9 -18 16 -12 16 5 0 15 -5 21 -11 13 -13 33 -4 33 14 0 8 -3 8 -9 -2 -6 -9
-11 -10 -15 -2 -4 6 -5 15 -2 19 3 5 -7 7 -22 5 -18 -3 -37 4 -57 22 -22 18
-24 23 -10 19 16 -6 18 -4 8 6 -10 11 -15 11 -28 0 -8 -7 -19 -9 -23 -5 -4 4
-1 10 6 12 10 4 10 8 0 21 -7 9 -8 13 -3 10 6 -3 21 9 34 26 l25 31 -25 -22
-24 -22 -11 24 c-8 17 -8 27 -1 34 8 8 7 11 -2 11 -8 0 -10 7 -6 21 5 15 4 19
-5 14 -9 -6 -9 -1 1 16 11 21 10 22 -2 12 -12 -10 -15 -8 -16 8 -1 10 4 19 10
19 7 0 4 5 -5 11 -10 5 -18 17 -18 24 0 8 -4 15 -9 15 -5 0 -12 7 -15 16 -5
14 -4 15 8 5 8 -7 21 -9 27 -5 8 4 9 3 5 -4 -12 -20 4 -35 22 -20 13 11 15 9
9 -17 -7 -28 -6 -29 8 -11 8 11 24 20 35 21 35 3 34 14 -4 36 -20 11 -36 23
-36 25 0 4 24 -8 81 -42z m779 16 c0 -20 -5 -30 -14 -30 -12 0 -13 6 -5 30 6
17 13 30 15 30 2 0 4 -13 4 -30z m-1236 -27 c-18 -13 -17 -14 8 -9 15 2 27 2
26 -2 -1 -4 2 -15 7 -25 8 -18 -11 -50 -26 -42 -4 3 -12 -2 -17 -11 -6 -12
-17 -15 -32 -11 -16 4 -20 3 -12 -5 13 -13 4 -38 -15 -38 -10 0 -12 6 -8 21 5
15 4 19 -4 15 -6 -4 -11 -3 -11 2 0 5 -9 12 -20 15 -21 6 -29 51 -10 62 6 4 7
11 4 17 -4 7 -2 8 4 4 7 -4 12 -4 12 1 0 4 19 9 42 9 23 1 44 7 46 13 2 6 9 8
14 5 7 -5 4 -12 -8 -21z m491 17 c3 -6 -1 -7 -9 -4 -18 7 -21 14 -7 14 6 0 13
-4 16 -10z m-989 -47 c-10 -10 -19 5 -10 18 6 11 8 11 12 0 2 -7 1 -15 -2 -18z
m1139 17 c3 -5 1 -10 -4 -10 -6 0 -11 5 -11 10 0 6 2 10 4 10 3 0 8 -4 11 -10z
m45 -5 c11 -13 10 -14 -4 -9 -9 3 -16 10 -16 15 0 13 6 11 20 -6z m-1134 -27
c5 -8 2 -9 -9 -5 -19 7 -23 -9 -4 -16 8 -4 8 -8 2 -14 -5 -4 -12 -17 -13 -28
-2 -11 -9 -23 -14 -26 -6 -4 -7 -12 -4 -18 4 -6 1 -11 -6 -12 -10 0 -10 -2 -1
-6 10 -3 10 -8 -1 -19 -17 -17 -13 -50 5 -46 10 2 10 -1 -1 -10 -9 -7 -26 -29
-38 -49 -17 -28 -28 -36 -46 -34 -14 2 -27 -3 -30 -12 -4 -10 -13 -12 -27 -8
-18 6 -21 4 -16 -9 4 -9 2 -16 -3 -16 -6 0 -10 3 -11 8 0 4 -2 15 -4 25 -2 10
6 27 18 39 12 11 17 18 10 14 -17 -9 -38 60 -24 78 6 7 7 17 3 21 -4 5 -1 5 6
1 17 -10 15 2 -3 20 -8 9 -15 20 -15 25 0 6 7 3 16 -5 20 -21 19 -21 39 20 9
20 19 33 22 30 3 -3 -4 -21 -16 -41 -22 -38 -20 -64 3 -42 8 6 12 15 9 20 -10
16 9 28 25 15 15 -12 16 -11 4 4 -15 19 -7 42 13 34 7 -2 21 2 32 11 17 14 17
14 0 9 -11 -3 -16 -2 -12 4 9 14 46 13 43 -1 -2 -6 3 -14 10 -16 11 -4 12 -1
2 16 -17 33 17 70 36 39z m1074 2 c0 -5 -2 -10 -4 -10 -3 0 -8 5 -11 10 -3 6
-1 10 4 10 6 0 11 -4 11 -10z m-1130 -10 c0 -5 -5 -10 -11 -10 -5 0 -7 5 -4
10 3 6 8 10 11 10 2 0 4 -4 4 -10z m561 -23 c-10 -9 -11 -8 -5 6 3 10 9 15 12
12 3 -3 0 -11 -7 -18z m581 -12 c23 -19 44 -32 49 -29 4 2 7 -4 6 -15 -1 -16
-5 -18 -19 -10 -10 5 -18 14 -18 19 0 6 -7 10 -15 10 -8 0 -14 4 -12 9 1 5 -9
18 -22 30 -13 12 -21 21 -17 21 4 0 26 -16 48 -35z m-490 -1 c7 -5 18 -9 23
-9 31 -3 65 -19 65 -31 0 -8 -4 -14 -10 -15 -51 -6 -142 9 -135 22 4 5 0 12
-8 15 -9 3 -13 13 -10 24 4 15 10 17 34 10 15 -5 34 -12 41 -16z m632 11 c3
-8 1 -15 -4 -15 -6 0 -10 7 -10 15 0 8 2 15 4 15 2 0 6 -7 10 -15z m-1330 -11
c3 -8 2 -12 -4 -9 -6 3 -10 10 -10 16 0 14 7 11 14 -7z m360 -9 c3 -9 0 -15
-9 -15 -8 0 -15 -7 -15 -16 0 -14 -3 -14 -15 -4 -13 10 -19 10 -33 -4 -18 -15
-52 -22 -52 -10 0 3 9 17 20 31 11 14 20 20 20 13 0 -10 3 -10 15 0 8 7 15 9
15 6 0 -4 8 -2 18 3 23 14 29 13 36 -4z m454 -50 c-3 -3 -9 2 -12 12 -6 14 -5
15 5 6 7 -7 10 -15 7 -18z m-938 -40 c0 -8 -4 -15 -10 -15 -5 0 -7 7 -4 15 4
8 8 15 10 15 2 0 4 -7 4 -15z m1847 -37 c-3 -8 -6 -5 -6 6 -1 11 2 17 5 13 3
-3 4 -12 1 -19z m-487 -19 c0 -5 -5 -8 -11 -6 -6 1 -14 -4 -17 -12 -3 -9 0
-11 9 -6 8 5 6 -1 -4 -12 -12 -14 -14 -23 -7 -26 6 -3 5 -4 -2 -3 -7 2 -14 8
-14 14 -1 7 -2 17 -3 23 0 5 -5 7 -11 4 -5 -3 -10 1 -10 9 0 9 6 13 13 10 8
-3 20 2 27 10 12 16 30 13 30 -5z m-470 2 c0 -13 -27 -21 -45 -15 -19 8 -19
-3 0 -23 21 -20 12 -28 -14 -13 -12 6 -27 8 -33 4 -7 -4 -8 -3 -4 4 4 7 2 12
-3 12 -27 0 -7 17 32 27 57 14 67 14 67 4z m-448 -14 c60 -16 63 -20 36 -43
-20 -18 -21 -18 -15 0 6 14 3 17 -8 12 -8 -3 -15 -1 -15 4 0 6 -3 9 -7 8 -17
-3 -62 15 -57 23 6 11 8 11 66 -4z m-433 -39 c1 -5 -3 -8 -8 -8 -12 0 -22 30
-14 43 6 10 20 -13 22 -35z m746 32 c-3 -5 -12 -10 -18 -10 -7 0 -6 4 3 10 19
12 23 12 15 0z m-574 -26 c-11 -8 -25 -22 -30 -32 -6 -9 -10 -12 -11 -7 0 16
44 64 53 58 5 -3 -1 -12 -12 -19z m1651 4 c-7 -7 -12 -8 -12 -2 0 6 3 14 7 17
3 4 9 5 12 2 2 -3 -1 -11 -7 -17z m-754 -19 c-3 -8 -7 -3 -11 10 -4 17 -3 21
5 13 5 -5 8 -16 6 -23z m331 -3 c-3 -3 -11 5 -18 17 -13 21 -12 21 5 5 10 -10
16 -20 13 -22z m-751 0 c-10 -7 -18 -18 -18 -24 0 -7 8 -9 18 -5 9 3 14 3 10
-1 -3 -4 -17 -9 -31 -10 -33 -4 -31 25 3 41 33 16 39 16 18 -1z m710 -31 c-3
-3 -9 2 -12 12 -6 14 -5 15 5 6 7 -7 10 -15 7 -18z m-1388 -5 c0 -5 -2 -10 -4
-10 -3 0 -8 5 -11 10 -3 6 -1 10 4 10 6 0 11 -4 11 -10z m105 -9 c3 -6 -4 -15
-15 -21 -20 -11 -21 -10 -10 9 12 23 16 25 25 12z m19 -25 c-3 -9 -10 -16 -15
-16 -5 0 -4 9 3 20 14 22 21 20 12 -4z m1279 -11 c-7 -21 -12 -19 -10 4 0 11
5 18 9 15 4 -3 5 -11 1 -19z m-113 -5 c0 -5 -5 -10 -11 -10 -5 0 -7 5 -4 10 3
6 8 10 11 10 2 0 4 -4 4 -10z m30 -10 c0 -5 -2 -10 -4 -10 -3 0 -8 5 -11 10
-3 6 -1 10 4 10 6 0 11 -4 11 -10z m-629 -126 c5 -3 9 -1 9 5 0 5 9 9 21 8 14
-1 19 -7 16 -19 -6 -20 9 -25 16 -5 2 6 8 9 12 5 4 -4 2 -15 -5 -23 -10 -13
-11 -18 -1 -28 10 -9 12 -9 9 3 -2 10 3 14 16 12 11 -2 15 1 11 7 -9 15 8 14
23 -1 10 -10 15 -10 22 2 6 10 10 11 10 3 0 -7 11 -15 25 -19 13 -3 30 -13 37
-22 10 -12 10 -14 1 -8 -8 4 -13 2 -13 -6 0 -8 -3 -9 -8 -3 -4 6 -37 10 -74
10 -38 0 -68 3 -68 7 0 5 -6 8 -14 8 -8 0 -18 5 -22 12 -4 7 -3 8 4 4 7 -4 12
-2 12 3 0 14 -3 14 -35 -1 -14 -6 -25 -16 -25 -22 0 -6 -11 3 -25 19 -23 27
-26 28 -35 13 -6 -10 -15 -18 -21 -18 -5 0 -2 11 7 25 9 14 13 25 10 25 -4 0
-4 5 -1 10 6 10 67 6 86 -6z m159 7 c0 -5 -9 -7 -20 -4 -11 3 -20 7 -20 9 0 2
9 4 20 4 11 0 20 -4 20 -9z m50 -26 c13 -14 19 -25 14 -25 -11 1 -54 36 -54
44 0 13 18 5 40 -19z m-331 -69 c1 -6 -4 -5 -11 2 -8 8 -15 8 -24 1 -8 -7 -19
-7 -30 -1 -11 6 -13 11 -5 16 6 4 11 2 11 -3 0 -6 5 -11 11 -11 6 0 8 7 5 16
-3 8 -2 12 3 9 5 -3 13 0 17 7 5 8 10 6 15 -8 4 -10 8 -23 8 -28z m67 -156 c9
0 12 -5 8 -11 -4 -8 0 -8 15 0 17 9 21 9 21 -3 0 -18 45 -29 69 -16 14 7 25 5
44 -10 30 -24 41 -25 33 -4 -4 10 -1 14 6 11 7 -2 12 -17 11 -33 -3 -27 -2
-27 7 -6 5 12 14 22 20 22 6 0 8 -4 5 -10 -3 -6 1 -7 9 -4 25 10 19 -24 -6
-37 -13 -7 -24 -10 -25 -8 -1 2 -12 -4 -23 -13 -23 -21 -45 -24 -34 -5 6 9 4
9 -8 -1 -20 -16 -118 -27 -118 -14 0 7 -11 6 -30 -1 -25 -10 -33 -9 -40 3 -8
12 -10 12 -10 1 0 -10 -3 -11 -14 -2 -7 6 -20 9 -27 6 -8 -2 -25 5 -38 16 -22
18 -23 23 -12 41 7 11 10 23 7 26 -3 3 -6 0 -6 -6 0 -7 -4 -12 -10 -12 -5 0
-10 7 -10 15 0 8 7 15 15 15 8 0 15 5 15 10 0 6 7 10 15 10 8 0 15 4 15 9 0
10 47 20 68 14 8 -1 20 -3 28 -3z m534 -14 c0 -3 -4 -8 -10 -11 -5 -3 -10 -1
-10 4 0 6 5 11 10 11 6 0 10 -2 10 -4z m-470 -346 c0 -5 -5 -10 -11 -10 -5 0
-7 5 -4 10 3 6 8 10 11 10 2 0 4 -4 4 -10z m24 -41 c-2 -4 2 -10 8 -12 8 -4 9
-6 2 -6 -6 -1 -17 5 -23 12 -8 10 -7 14 4 14 8 0 12 -4 9 -8z m-1739 -717 c-3
-3 -11 0 -18 7 -9 10 -8 11 6 5 10 -3 15 -9 12 -12z m-166 -21 c-13 -11 -28
-20 -34 -20 -5 0 3 11 20 24 16 13 31 22 34 20 2 -3 -7 -13 -20 -24z m-229
-141 c0 -5 -5 -10 -11 -10 -5 0 -7 5 -4 10 3 6 8 10 11 10 2 0 4 -4 4 -10z
m89 -37 c-12 -15 -12 -16 3 -10 27 10 29 -7 2 -20 -20 -9 -24 -8 -24 4 0 8 -4
11 -10 8 -5 -3 -10 -2 -10 3 0 5 10 14 23 20 30 15 31 14 16 -5z m-71 -53 c10
-16 10 -20 -2 -20 -17 0 -38 24 -29 33 10 11 17 8 31 -13z m32 10 c0 -5 -4
-10 -10 -10 -5 0 -10 5 -10 10 0 6 5 10 10 10 6 0 10 -4 10 -10z m-110 -30 c0
-5 -5 -10 -11 -10 -5 0 -7 5 -4 10 3 6 8 10 11 10 2 0 4 -4 4 -10z m-24 -25
c9 -8 11 -15 6 -15 -5 0 -15 7 -22 15 -7 8 -9 15 -6 15 4 0 14 -7 22 -15z
m-69 -21 c-3 -3 -12 -4 -19 -1 -8 3 -5 6 6 6 11 1 17 -2 13 -5z m53 -4 c0 -5
-5 -10 -11 -10 -5 0 -7 5 -4 10 3 6 8 10 11 10 2 0 4 -4 4 -10z m70 -10 c0
-15 -7 -20 -26 -20 -14 0 -23 4 -19 10 4 6 11 8 16 5 5 -4 12 1 15 9 8 22 14
20 14 -4z m-130 -20 c0 -5 -2 -10 -4 -10 -3 0 -8 5 -11 10 -3 6 -1 10 4 10 6
0 11 -4 11 -10z m-38 -22 c-7 -7 -12 -8 -12 -2 0 14 12 26 19 19 2 -3 -1 -11
-7 -17z m132 -6 c2 -4 1 -14 -3 -21 -6 -9 -11 -10 -15 -3 -4 6 -13 9 -21 5
-15 -5 -21 8 -8 20 9 10 41 9 47 -1z m-154 -26 c0 -3 -4 -8 -10 -11 -5 -3 -10
-1 -10 4 0 6 5 11 10 11 6 0 10 -2 10 -4z m-255 -26 c-3 -5 -11 -10 -16 -10
-6 0 -7 5 -4 10 3 6 11 10 16 10 6 0 7 -4 4 -10z m332 4 c-3 -3 -12 -4 -19 -1
-8 3 -5 6 6 6 11 1 17 -2 13 -5z m-267 -37 c0 -4 -6 -2 -14 5 -8 7 -12 17 -9
22 5 8 23 -12 23 -27z m190 3 c0 -5 -5 -10 -11 -10 -5 0 -7 5 -4 10 3 6 8 10
11 10 2 0 4 -4 4 -10z m74 1 c3 -5 -1 -11 -9 -14 -9 -4 -12 -1 -8 9 6 16 10
17 17 5z m46 -22 c0 -5 -4 -9 -10 -9 -5 0 -10 7 -10 16 0 8 5 12 10 9 6 -3 10
-10 10 -16z m-370 1 c0 -5 -4 -10 -10 -10 -5 0 -10 5 -10 10 0 6 5 10 10 10 6
0 10 -4 10 -10z m467 4 c-3 -3 -12 -4 -19 -1 -8 3 -5 6 6 6 11 1 17 -2 13 -5z
m-564 -34 c-5 -19 -23 -29 -23 -12 0 7 20 32 26 32 1 0 0 -9 -3 -20z m370 3
c-7 -2 -19 -2 -25 0 -7 3 -2 5 12 5 14 0 19 -2 13 -5z m57 -3 c0 -5 -2 -10 -4
-10 -3 0 -8 5 -11 10 -3 6 -1 10 4 10 6 0 11 -4 11 -10z m-464 -20 c0 -11 -4
-20 -8 -20 -10 0 -11 24 -1 33 9 9 9 10 9 -13z m334 -14 c0 -3 -4 -8 -10 -11
-5 -3 -10 -1 -10 4 0 6 5 11 10 11 6 0 10 -2 10 -4z m30 -21 c11 -13 10 -14
-4 -9 -9 3 -16 10 -16 15 0 13 6 11 20 -6z m75 5 c3 -6 -4 -10 -17 -10 -18 0
-20 2 -8 10 19 12 18 12 25 0z m-545 -10 c0 -5 -5 -10 -11 -10 -5 0 -7 5 -4
10 3 6 8 10 11 10 2 0 4 -4 4 -10z m665 -21 c-10 -15 -25 -10 -19 6 4 8 10 12
15 9 5 -3 7 -10 4 -15z m-101 -5 c9 -4 16 -17 15 -33 l0 -26 -10 25 c-6 13
-15 28 -22 32 -14 9 -5 10 17 2z m-687 -46 c-3 -8 -6 -5 -6 6 -1 11 2 17 5 13
3 -3 4 -12 1 -19z m978 -36 c-8 -8 -25 10 -19 20 4 6 9 5 15 -3 4 -7 6 -15 4
-17z m-1062 3 c-3 -9 -8 -14 -10 -11 -3 3 -2 9 2 15 9 16 15 13 8 -4z m707 5
c0 -6 -11 -10 -25 -10 -14 0 -25 4 -25 8 0 4 11 9 25 10 14 1 25 -3 25 -8z
m-95 -9 c3 -5 1 -12 -5 -16 -5 -3 -10 1 -10 9 0 18 6 21 15 7z m410 -1 c-3 -5
-11 -10 -16 -10 -6 0 -7 5 -4 10 3 6 11 10 16 10 6 0 7 -4 4 -10z m55 -30 c0
-5 -4 -10 -10 -10 -5 0 -10 5 -10 10 0 6 5 10 10 10 6 0 10 -4 10 -10z m-485
-30 c3 -5 1 -10 -4 -10 -6 0 -11 5 -11 10 0 6 2 10 4 10 3 0 8 -4 11 -10z
m135 -15 c11 -13 10 -14 -4 -9 -9 3 -16 10 -16 15 0 13 6 11 20 -6z m-165 -5
c3 -5 1 -10 -4 -10 -6 0 -11 5 -11 10 0 6 2 10 4 10 3 0 8 -4 11 -10z m3140 0
c-3 -5 -11 -10 -16 -10 -6 0 -7 5 -4 10 3 6 11 10 16 10 6 0 7 -4 4 -10z m11
-39 c-11 -12 -14 -21 -7 -26 14 -8 14 -25 0 -25 -5 0 -8 4 -4 9 3 5 1 12 -4
15 -14 9 -1 46 17 46 13 0 13 -3 -2 -19z m34 -11 c0 -5 -7 -10 -16 -10 -8 0
-12 5 -9 10 3 6 10 10 16 10 5 0 9 -4 9 -10z m-3470 -10 c-8 -5 -24 -10 -35
-10 -17 0 -17 2 -5 10 8 5 24 10 35 10 17 0 17 -2 5 -10z m78 -15 c-3 -3 -9 2
-12 12 -6 14 -5 15 5 6 7 -7 10 -15 7 -18z m413 -8 c-13 -13 -26 -3 -16 12 3
6 11 8 17 5 6 -4 6 -10 -1 -17z m2909 13 c0 -5 -4 -10 -10 -10 -5 0 -10 5 -10
10 0 6 5 10 10 10 6 0 10 -4 10 -10z m-2974 -27 c-10 -10 -19 5 -10 18 6 11 8
11 12 0 2 -7 1 -15 -2 -18z m-231 -3 c3 -5 1 -10 -4 -10 -6 0 -11 5 -11 10 0
6 2 10 4 10 3 0 8 -4 11 -10z m80 0 c3 -5 1 -10 -4 -10 -6 0 -11 5 -11 10 0 6
2 10 4 10 3 0 8 -4 11 -10z m55 0 c0 -5 -7 -10 -15 -10 -8 0 -15 5 -15 10 0 6
7 10 15 10 8 0 15 -4 15 -10z m37 4 c-3 -3 -12 -4 -19 -1 -8 3 -5 6 6 6 11 1
17 -2 13 -5z m-137 -34 c0 -5 -2 -10 -4 -10 -3 0 -8 5 -11 10 -3 6 -1 10 4 10
6 0 11 -4 11 -10z m-15 -20 c3 -5 1 -10 -4 -10 -6 0 -11 5 -11 10 0 6 2 10 4
10 3 0 8 -4 11 -10z m355 -31 c0 -10 -5 -21 -11 -25 -8 -4 -9 0 -4 15 4 12 2
21 -4 21 -6 0 -11 7 -11 16 0 14 3 14 15 4 8 -7 15 -21 15 -31z m-510 11 c-8
-5 -22 -10 -30 -10 -13 0 -13 1 0 10 8 5 22 10 30 10 13 0 13 -1 0 -10z m77
-9 c-1 -15 -4 -17 -14 -9 -17 14 -16 28 1 28 8 0 14 -9 13 -19z m-207 -7 c0
-2 -12 -4 -27 -4 -21 0 -24 3 -14 9 13 8 41 5 41 -5z m40 6 c0 -5 -2 -10 -4
-10 -3 0 -8 5 -11 10 -3 6 -1 10 4 10 6 0 11 -4 11 -10z m513 3 c-7 -2 -21 -2
-30 0 -10 3 -4 5 12 5 17 0 24 -2 18 -5z m37 -20 c0 -21 -3 -24 -9 -14 -5 8
-7 20 -4 28 8 21 13 15 13 -14z m-320 -23 c0 -5 -8 -14 -17 -20 -15 -9 -14
-10 7 -5 21 5 22 4 7 -5 -13 -9 -24 -7 -47 7 -40 23 -38 29 10 31 22 1 40 -2
40 -8z m-100 -14 c0 -3 -4 -8 -10 -11 -5 -3 -10 -1 -10 4 0 6 5 11 10 11 6 0
10 -2 10 -4z m440 -6 c-20 -13 -33 -13 -25 0 3 6 14 10 23 10 15 0 15 -2 2
-10z m-530 -14 c0 -3 -4 -8 -10 -11 -5 -3 -10 -1 -10 4 0 6 5 11 10 11 6 0 10
-2 10 -4z m134 -11 c3 -8 1 -15 -3 -15 -5 0 -11 7 -15 15 -3 8 -1 15 3 15 5 0
11 -7 15 -15z m3541 5 c3 -5 1 -10 -4 -10 -6 0 -11 5 -11 10 0 6 2 10 4 10 3
0 8 -4 11 -10z m-3430 -10 c3 -5 1 -10 -4 -10 -6 0 -11 5 -11 10 0 6 2 10 4
10 3 0 8 -4 11 -10z m210 -7 c-2 -10 -4 -22 -4 -27 -2 -16 -15 4 -16 24 -1 11
4 20 11 20 7 0 11 -8 9 -17z m-145 -3 c0 -5 -12 -10 -26 -10 -14 0 -23 4 -19
10 3 6 15 10 26 10 10 0 19 -4 19 -10z m3320 0 c0 -5 -4 -10 -10 -10 -5 0 -10
5 -10 10 0 6 5 10 10 10 6 0 10 -4 10 -10z m-3440 -10 c0 -5 -7 -7 -15 -4 -8
4 -15 8 -15 10 0 2 7 4 15 4 8 0 15 -4 15 -10z m500 -12 c0 -8 -14 -13 -35
-13 -35 0 -46 9 -22 18 24 10 57 7 57 -5z m-720 -8 c0 -5 -5 -10 -11 -10 -5 0
-7 5 -4 10 3 6 8 10 11 10 2 0 4 -4 4 -10z m430 -21 c0 6 6 11 14 11 9 0 12
-7 9 -20 -4 -15 -11 -18 -37 -13 -39 7 -44 12 -26 23 9 5 19 5 27 -2 9 -7 13
-7 13 1z m2291 -21 c8 -14 8 -23 0 -31 -8 -8 -11 -8 -11 1 0 7 -8 12 -17 13
-11 0 -13 3 -5 6 22 9 13 23 -15 23 -20 0 -24 3 -14 9 19 12 50 2 62 -21z
m-1611 13 c0 -5 -7 -11 -14 -14 -10 -4 -13 -1 -9 9 6 15 23 19 23 5z m-630
-11 c0 -5 -4 -10 -10 -10 -5 0 -10 5 -10 10 0 6 5 10 10 10 6 0 10 -4 10 -10z
m2334 -5 c-5 -12 -34 -17 -34 -5 0 11 9 17 24 17 8 0 12 -6 10 -12z m43 -7
c-3 -8 -6 -5 -6 6 -1 11 2 17 5 13 3 -3 4 -12 1 -19z m-2687 2 c12 -8 11 -10
-7 -10 -13 0 -23 5 -23 10 0 13 11 13 30 0z m508 -17 c-2 -10 3 -17 10 -15 14
2 16 -14 3 -22 -5 -4 -12 0 -14 6 -4 10 -7 10 -14 1 -5 -8 -14 -9 -23 -3 -12
7 -11 12 4 29 23 26 38 27 34 4z m2862 7 c0 -5 -5 -10 -11 -10 -5 0 -7 5 -4
10 3 6 8 10 11 10 2 0 4 -4 4 -10z m-850 -14 c0 -3 -4 -8 -10 -11 -5 -3 -10
-1 -10 4 0 6 5 11 10 11 6 0 10 -2 10 -4z m-2533 -28 c2 -22 -15 -24 -24 -2
-3 8 -12 13 -19 10 -8 -3 -14 -1 -14 4 0 5 13 8 28 7 19 -1 29 -8 29 -19z
m-347 8 c0 -3 -4 -8 -10 -11 -5 -3 -10 -1 -10 4 0 6 5 11 10 11 6 0 10 -2 10
-4z m200 -6 c0 -5 -10 -10 -22 -10 -19 0 -20 2 -8 10 19 13 30 13 30 0z m-96
-15 c-4 -8 -8 -15 -10 -15 -2 0 -4 7 -4 15 0 8 4 15 10 15 5 0 7 -7 4 -15z
m-174 -5 c0 -5 -4 -10 -10 -10 -5 0 -10 5 -10 10 0 6 5 10 10 10 6 0 10 -4 10
-10z m205 -20 c3 -5 2 -10 -4 -10 -5 0 -13 5 -16 10 -3 6 -2 10 4 10 5 0 13
-4 16 -10z m1245 0 c0 -5 -4 -10 -10 -10 -5 0 -10 5 -10 10 0 6 5 10 10 10 6
0 10 -4 10 -10z m-516 -56 c3 -8 2 -12 -4 -9 -6 3 -10 10 -10 16 0 14 7 11 14
-7z m-779 -32 c-2 -2 -18 -1 -35 3 -25 5 -29 9 -19 21 9 11 15 11 34 -4 13 -9
22 -19 20 -20z m1000 18 c3 -5 1 -10 -4 -10 -6 0 -11 5 -11 10 0 6 2 10 4 10
3 0 8 -4 11 -10z m-1087 -14 c10 4 7 -2 -8 -14 -18 -15 -28 -18 -37 -10 -11 8
-10 13 4 24 10 7 19 9 21 4 2 -5 11 -6 20 -4z m182 4 c0 -5 -5 -10 -11 -10 -5
0 -7 5 -4 10 3 6 8 10 11 10 2 0 4 -4 4 -10z m253 -24 c14 -4 26 0 35 11 18
25 15 1 -4 -26 -13 -18 -18 -20 -25 -10 -8 12 -10 12 -18 0 -5 -7 -30 -14 -57
-16 -27 -1 -43 -1 -36 2 19 7 14 23 -8 23 -11 0 -20 4 -20 9 0 6 19 9 41 9 31
0 45 5 53 18 9 17 11 17 14 3 2 -10 13 -20 25 -23z m387 24 c-19 -13 -30 -13
-30 0 0 6 10 10 23 10 18 0 19 -2 7 -10z m-250 -16 c0 -8 -19 -13 -24 -6 -3 5
1 9 9 9 8 0 15 -2 15 -3z m-495 -14 c-3 -5 -14 -10 -23 -10 -15 0 -15 2 -2 10
20 13 33 13 25 0z m205 -5 c-7 -8 -17 -15 -22 -15 -6 0 -5 7 2 15 7 8 17 15
22 15 6 0 5 -7 -2 -15z m655 4 c4 -6 5 -13 2 -16 -8 -7 -47 7 -47 18 0 13 37
11 45 -2z m70 1 c3 -5 1 -10 -4 -10 -6 0 -11 5 -11 10 0 6 2 10 4 10 3 0 8 -4
11 -10z m-870 -20 c-3 -5 -13 -10 -21 -10 -8 0 -12 5 -9 10 3 6 13 10 21 10 8
0 12 -4 9 -10z m-75 -20 c0 -5 -7 -10 -15 -10 -8 0 -15 5 -15 10 0 6 7 10 15
10 8 0 15 -4 15 -10z m210 0 c0 -5 -4 -10 -10 -10 -5 0 -10 5 -10 10 0 6 5 10
10 10 6 0 10 -4 10 -10z m170 -5 c0 -8 -4 -15 -9 -15 -13 0 -22 16 -14 24 11
11 23 6 23 -9z m60 4 c0 -5 -12 -9 -26 -9 -14 0 -23 4 -20 8 7 11 46 12 46 1z"/>
<path d="M3020 4630 c-8 -5 -11 -12 -8 -16 10 -9 38 3 38 16 0 12 -10 13 -30
0z"/>
<path d="M3106 4601 c-4 -5 0 -11 6 -14 9 -3 5 -12 -11 -31 -20 -21 -22 -26
-8 -26 9 0 16 6 15 13 -2 6 3 11 10 9 8 -1 11 2 7 8 -3 5 1 10 10 10 9 0 14
-4 11 -9 -6 -8 14 -21 41 -27 12 -2 27 25 19 33 -2 3 -14 0 -25 -7 -12 -6 -21
-7 -20 -3 4 23 -2 35 -16 30 -8 -4 -17 -1 -21 5 -5 7 -2 8 6 3 9 -5 11 -4 6 3
-9 14 -23 15 -30 3z"/>
<path d="M2980 4590 c0 -5 4 -10 9 -10 6 0 13 5 16 10 3 6 -1 10 -9 10 -9 0
-16 -4 -16 -10z"/>
<path d="M2945 4579 c-11 -16 -1 -19 13 -3 7 8 8 14 3 14 -5 0 -13 -5 -16 -11z"/>
<path d="M3000 4526 c0 -2 7 -9 15 -16 13 -11 14 -10 9 4 -5 14 -24 23 -24 12z"/>
<path d="M2946 4512 c-3 -6 -1 -14 5 -17 14 -9 20 -2 10 14 -6 8 -11 9 -15 3z"/>
<path d="M3107 4493 c-4 -3 -7 -15 -7 -25 0 -20 -16 -25 -23 -5 -2 6 -6 0 -9
-15 -4 -24 -3 -26 13 -18 21 12 29 23 34 50 4 21 2 24 -8 13z"/>
<path d="M2930 4483 c0 -5 4 -14 9 -21 6 -10 11 -9 22 4 9 12 10 15 2 10 -7
-4 -13 -2 -13 3 0 6 -4 11 -10 11 -5 0 -10 -3 -10 -7z"/>
<path d="M2874 4445 c-1 -16 3 -24 10 -22 16 5 20 47 4 47 -7 0 -14 -11 -14
-25z"/>
<path d="M3112 4438 c-7 -7 -12 -19 -12 -27 0 -13 -2 -13 -9 -2 -5 8 -11 9
-15 3 -3 -6 0 -12 6 -15 10 -3 10 -9 -2 -24 -8 -10 -5 -8 8 5 16 17 22 19 22
8 0 -10 6 -13 16 -9 16 6 16 7 0 18 -20 15 -21 35 0 35 8 0 13 -4 10 -9 -4 -5
3 -7 14 -4 19 5 20 6 3 19 -22 17 -26 17 -41 2z"/>
<path d="M2923 4396 c-26 -12 -30 -26 -8 -26 8 0 15 -7 15 -15 0 -17 16 -20
25 -5 4 6 11 8 16 5 5 -4 9 -2 9 2 0 5 -9 14 -20 21 -12 7 -18 17 -15 22 3 6
5 9 3 9 -2 -1 -13 -6 -25 -13z m27 -27 c0 -6 -4 -7 -10 -4 -5 3 -10 11 -10 16
0 6 5 7 10 4 6 -3 10 -11 10 -16z"/>
<path d="M2991 4348 c-1 -9 -7 -19 -13 -22 -7 -3 -2 -3 12 0 14 3 35 6 47 7
12 0 19 5 17 9 -3 5 -10 6 -15 3 -5 -4 -9 -1 -9 6 0 9 -3 9 -14 0 -11 -9 -15
-9 -19 1 -4 9 -6 7 -6 -4z"/>
<path d="M3106 4344 c-8 -21 -9 -20 13 -21 14 -1 17 3 14 18 -6 23 -19 25 -27
3z"/>
<path d="M3021 4273 c-10 -26 -10 -27 4 -9 8 11 15 23 15 28 0 15 -7 8 -19
-19z"/>
<path d="M3130 4289 c0 -5 5 -7 10 -4 6 3 10 8 10 11 0 2 -4 4 -10 4 -5 0 -10
-5 -10 -11z"/>
<path d="M3195 4289 c-9 -14 -2 -20 14 -10 8 6 9 11 3 15 -6 3 -14 1 -17 -5z"/>
<path d="M3244 4271 c20 -22 26 -25 26 -13 0 4 -10 13 -22 21 -23 14 -23 14
-4 -8z"/>
<path d="M2985 4270 c-3 -6 1 -7 9 -4 18 7 21 14 7 14 -6 0 -13 -4 -16 -10z"/>
<path d="M2945 4240 c4 -6 11 -8 16 -5 14 9 11 15 -7 15 -8 0 -12 -5 -9 -10z"/>
<path d="M3340 4234 c0 -8 5 -12 10 -9 6 4 8 11 5 16 -9 14 -15 11 -15 -7z"/>
<path d="M2796 4203 c-6 -14 -5 -15 5 -6 7 7 10 15 7 18 -3 3 -9 -2 -12 -12z"/>
<path d="M2850 4211 c0 -6 4 -12 8 -15 5 -3 9 1 9 9 0 8 -4 15 -9 15 -4 0 -8
-4 -8 -9z"/>
<path d="M3195 4200 c-3 -5 -1 -10 4 -10 6 0 11 5 11 10 0 6 -2 10 -4 10 -3 0
-8 -4 -11 -10z"/>
<path d="M2820 4193 c1 -18 18 -35 24 -24 4 6 4 16 1 21 -7 12 -25 13 -25 3z"/>
<path d="M3248 4193 c6 -2 9 -10 6 -15 -4 -7 -2 -8 5 -4 13 9 5 26 -12 25 -9
0 -8 -2 1 -6z"/>
<path d="M2993 4156 c1 -11 9 -21 17 -23 10 -3 11 -2 4 4 -6 4 -14 15 -17 23
-5 11 -6 9 -4 -4z"/>
<path d="M2935 4120 c5 -8 10 -19 10 -25 0 -12 24 -13 28 -1 1 5 -9 16 -23 25
-20 13 -23 13 -15 1z"/>
<path d="M3081 4115 c0 -5 6 -19 14 -29 12 -16 17 -17 28 -7 6 7 8 12 2 11
-21 -5 -29 1 -15 10 8 5 11 12 7 17 -5 4 -12 1 -16 -6 -7 -11 -10 -11 -14 0
-3 8 -6 10 -6 4z"/>
<path d="M3040 4098 c0 -4 4 -8 9 -8 6 0 12 4 15 8 3 5 -1 9 -9 9 -8 0 -15 -4
-15 -9z"/>
<path d="M3620 4026 c0 -2 7 -7 16 -10 8 -3 12 -2 9 4 -6 10 -25 14 -25 6z"/>
<path d="M3069 3817 c-17 -13 -15 -37 3 -37 6 0 8 6 5 14 -3 7 0 19 6 25 15
15 6 14 -14 -2z"/>
<path d="M3495 3600 c3 -5 11 -10 16 -10 6 0 7 5 4 10 -3 6 -11 10 -16 10 -6
0 -7 -4 -4 -10z"/>
<path d="M3544 3265 c26 -19 42 -19 26 0 -7 8 -20 15 -29 15 -13 -1 -13 -3 3
-15z"/>
<path d="M3560 3216 c0 -2 8 -10 18 -17 15 -13 16 -12 3 4 -13 16 -21 21 -21
13z"/>
<path d="M3520 3099 c0 -5 5 -7 10 -4 6 3 10 8 10 11 0 2 -4 4 -10 4 -5 0 -10
-5 -10 -11z"/>
<path d="M3670 3100 c0 -5 4 -10 9 -10 6 0 13 5 16 10 3 6 -1 10 -9 10 -9 0
-16 -4 -16 -10z"/>
<path d="M3520 3049 c0 -5 5 -7 10 -4 6 3 10 8 10 11 0 2 -4 4 -10 4 -5 0 -10
-5 -10 -11z"/>
<path d="M2430 3040 c0 -4 6 -13 14 -20 12 -9 15 -8 13 8 -1 17 -27 28 -27 12z"/>
<path d="M2436 2962 c-3 -5 1 -9 9 -9 8 0 12 4 9 9 -3 4 -7 8 -9 8 -2 0 -6 -4
-9 -8z"/>
<path d="M3230 2700 c0 -5 5 -10 11 -10 5 0 7 5 4 10 -3 6 -8 10 -11 10 -2 0
-4 -4 -4 -10z"/>
<path d="M3145 2461 c-3 -5 -1 -12 5 -16 5 -3 10 1 10 9 0 18 -6 21 -15 7z"/>
<path d="M3052 2425 c0 -16 2 -22 5 -12 2 9 2 23 0 30 -3 6 -5 -1 -5 -18z"/>
<path d="M4590 1465 c14 -8 30 -14 35 -14 6 0 -1 6 -15 14 -14 8 -29 14 -35
14 -5 0 1 -6 15 -14z"/>
<path d="M1300 1331 c0 -5 5 -13 10 -16 6 -3 10 -2 10 4 0 5 -4 13 -10 16 -5
3 -10 2 -10 -4z"/>
<path d="M4536 1331 c-4 -7 -14 -10 -22 -7 -15 6 -46 -46 -58 -96 -5 -21 -3
-28 9 -28 10 0 15 10 15 29 0 40 9 61 26 61 14 0 13 -13 -3 -75 -6 -20 -6 -20
16 0 16 13 20 26 16 42 -3 13 -1 33 5 44 13 23 9 51 -4 30z"/>
<path d="M1326 1307 c-15 -16 -20 -17 -27 -6 -6 10 -9 11 -9 2 0 -7 -7 -13
-15 -13 -8 0 -15 -7 -15 -15 0 -12 5 -13 27 -4 19 7 29 7 31 0 2 -6 8 -8 13
-5 6 3 19 -2 30 -12 19 -17 24 -9 13 19 -3 9 -14 12 -32 9 l-27 -5 24 20 c13
11 20 22 15 25 -5 3 -17 -4 -28 -15z"/>
<path d="M1402 1308 c-6 -9 -4 -19 10 -33 19 -20 19 -20 9 6 -5 15 -7 30 -4
33 4 3 4 6 1 6 -3 0 -10 -6 -16 -12z"/>
<path d="M1230 1269 c0 -5 5 -7 10 -4 6 3 10 8 10 11 0 2 -4 4 -10 4 -5 0 -10
-5 -10 -11z"/>
<path d="M4690 1270 c0 -5 5 -10 11 -10 5 0 7 5 4 10 -3 6 -8 10 -11 10 -2 0
-4 -4 -4 -10z"/>
<path d="M1204 1257 c-3 -9 -3 -20 0 -26 3 -5 1 -11 -5 -13 -7 -2 -3 -19 11
-46 19 -36 20 -43 7 -56 -8 -8 -13 -25 -10 -38 3 -16 -3 -27 -17 -36 -25 -15
-36 -10 -24 10 13 20 15 48 3 48 -12 0 -59 -46 -59 -58 0 -6 11 -13 25 -16 14
-4 25 -13 25 -21 0 -11 7 -14 26 -11 21 4 24 2 14 -9 -16 -20 -3 -37 22 -29
16 5 20 3 15 -9 -7 -18 16 -30 31 -15 16 16 65 17 87 2 19 -14 19 -14 -2 -14
-12 0 -24 -4 -27 -9 -3 -5 0 -9 7 -8 32 1 48 -4 42 -13 -3 -5 -17 -10 -31 -10
-13 0 -24 -4 -24 -10 0 -12 43 -8 52 5 4 5 10 6 14 2 4 -4 -1 -16 -11 -27 -18
-20 -13 -25 21 -21 7 1 14 -8 17 -20 5 -17 11 -20 32 -17 14 3 28 1 31 -4 3
-4 10 -6 15 -2 5 3 15 2 22 -3 18 -12 60 -10 64 5 3 7 -5 12 -21 12 -15 0 -29
7 -32 15 -4 8 -14 15 -25 15 -10 0 -23 9 -29 20 -8 16 -8 20 4 20 8 0 16 -5
18 -11 2 -6 17 -11 33 -11 16 0 35 -8 42 -17 10 -14 11 -13 6 6 -4 18 0 25 21
33 14 5 26 14 26 20 0 7 -7 7 -21 -1 -16 -8 -27 -8 -45 1 -19 11 -26 10 -40
-1 -16 -13 -16 -12 -4 10 11 22 11 23 -6 16 -11 -4 -26 -7 -34 -6 -8 1 -28 2
-45 4 -26 2 -30 5 -26 27 1 14 8 28 14 32 15 9 5 19 -22 21 -13 1 -21 8 -21
18 0 10 -7 24 -15 33 -19 19 -19 27 -1 20 8 -3 19 -18 25 -32 l9 -27 1 32 c1
23 -4 33 -19 38 -11 3 -20 10 -20 15 0 4 -13 3 -30 -3 -30 -11 -41 -27 -19
-27 6 0 9 -6 6 -14 -3 -8 -1 -17 6 -19 7 -2 0 -10 -16 -17 -29 -14 -51 -5 -27
11 13 8 13 10 0 19 -12 7 -16 4 -20 -18 -7 -33 -15 -21 -25 35 -6 36 -4 42 14
48 18 5 27 25 19 39 -2 2 6 14 17 26 l20 22 -25 -3 c-17 -3 -26 1 -28 13 -2
11 5 18 20 20 29 4 26 22 -4 26 -13 2 -29 8 -35 14 -9 7 -15 6 -19 -5z m6
-233 c0 -8 -5 -12 -10 -9 -6 4 -8 11 -5 16 9 14 15 11 15 -7z m145 -60 c26
-22 27 -23 5 -12 -14 7 -36 13 -50 14 -32 2 -32 2 -25 14 11 17 39 11 70 -16z
m-85 6 c0 -5 -4 -10 -10 -10 -5 0 -10 5 -10 10 0 6 5 10 10 10 6 0 10 -4 10
-10z"/>
<path d="M1151 1241 c-12 -8 -11 -12 4 -27 17 -17 17 -17 11 4 -6 18 -4 21 10
15 12 -4 15 -3 10 5 -9 14 -16 15 -35 3z"/>
<path d="M1426 1241 c-3 -5 1 -14 8 -20 12 -10 13 -8 9 8 -6 23 -9 25 -17 12z"/>
<path d="M4880 1236 c0 -9 5 -16 10 -16 6 0 10 4 10 9 0 6 -4 13 -10 16 -5 3
-10 -1 -10 -9z"/>
<path d="M1475 1225 c4 -11 10 -28 12 -37 3 -10 9 -18 14 -18 10 0 1 28 -19
55 l-14 20 7 -20z"/>
<path d="M1370 1223 c1 -14 30 -47 36 -41 8 8 -14 48 -26 48 -6 0 -10 -3 -10
-7z"/>
<path d="M1115 1210 c3 -5 11 -10 16 -10 6 0 7 5 4 10 -3 6 -11 10 -16 10 -6
0 -7 -4 -4 -10z"/>
<path d="M4956 1205 c10 -8 24 -14 29 -14 6 0 1 6 -9 14 -11 8 -24 15 -30 15
-5 0 -1 -7 10 -15z"/>
<path d="M1305 1192 c-5 -5 21 -32 30 -32 3 0 3 5 -1 11 -3 6 0 15 7 20 10 6
7 8 -9 6 -13 -1 -25 -3 -27 -5z"/>
<path d="M1134 1168 c-12 -13 -24 -31 -27 -41 -6 -15 -4 -16 16 -5 12 7 25 13
30 14 4 1 10 3 15 4 4 1 10 2 14 2 3 -1 9 5 12 13 3 10 -1 15 -13 15 -11 0
-21 5 -23 11 -2 5 -13 0 -24 -13z"/>
<path d="M5060 1161 c0 -5 7 -14 15 -21 16 -14 18 -10 9 14 -6 17 -24 22 -24
7z"/>
<path d="M1515 1141 c4 -12 18 -39 32 -60 20 -28 24 -31 18 -11 -4 14 -19 41
-32 60 -19 26 -23 29 -18 11z"/>
<path d="M1470 1144 c0 -6 5 -15 10 -20 8 -8 6 -15 -5 -24 -11 -9 -15 -9 -15
-1 0 7 -6 19 -14 27 -17 16 -46 19 -46 4 0 -5 7 -7 15 -4 9 4 18 -1 22 -12 4
-11 13 -25 21 -33 7 -8 12 -21 10 -30 -2 -9 4 -24 14 -34 15 -15 19 -15 24 -3
7 18 -12 56 -28 56 -9 0 -8 4 1 13 10 10 17 6 37 -18 13 -16 24 -34 24 -38 0
-4 -16 -17 -35 -28 -19 -12 -35 -22 -35 -24 0 -6 85 16 93 24 4 4 -13 39 -39
77 -53 79 -54 81 -54 68z"/>
<path d="M1298 1133 c7 -3 16 -2 19 1 4 3 -2 6 -13 5 -11 0 -14 -3 -6 -6z"/>
<path d="M1031 1069 c-11 -19 -11 -21 4 -15 9 3 19 6 21 6 2 0 4 7 4 15 0 21
-13 19 -29 -6z"/>
<path d="M1248 1073 c7 -3 16 -2 19 1 4 3 -2 6 -13 5 -11 0 -14 -3 -6 -6z"/>
<path d="M1410 1050 c-9 -6 -10 -10 -3 -10 6 0 15 5 18 10 8 12 4 12 -15 0z"/>
<path d="M5440 1056 c0 -3 9 -10 20 -16 11 -6 20 -8 20 -6 0 3 -9 10 -20 16
-11 6 -20 8 -20 6z"/>
<path d="M1028 1036 c-33 -12 -36 -22 -8 -29 11 -3 20 -2 20 2 0 5 10 12 22
18 31 14 1 22 -34 9z"/>
<path d="M1585 1020 c10 -11 20 -18 23 -16 5 6 -23 36 -34 36 -4 0 1 -9 11
-20z"/>
<path d="M1065 1002 c-16 -10 -16 -52 -1 -52 8 0 19 7 26 15 7 9 15 13 18 11
7 -7 42 13 42 24 0 6 -11 5 -27 -1 -19 -7 -29 -7 -31 0 -4 13 -13 14 -27 3z"/>
<path d="M5520 1006 c0 -3 9 -10 20 -16 11 -6 20 -8 20 -6 0 3 -9 10 -20 16
-11 6 -20 8 -20 6z"/>
<path d="M5235 990 c3 -5 13 -6 22 -3 12 5 15 2 10 -10 -4 -11 -2 -14 9 -10 8
3 21 0 29 -7 8 -7 15 -9 15 -5 0 4 -10 15 -22 26 -24 19 -74 27 -63 9z"/>
<path d="M1620 983 c0 -6 8 -17 18 -24 16 -13 16 -13 2 6 -8 11 -16 22 -17 24
-2 2 -3 0 -3 -6z"/>
<path d="M1576 965 c7 -18 44 -40 44 -27 0 10 -33 42 -43 42 -3 0 -4 -7 -1
-15z"/>
<path d="M4915 970 c3 -5 11 -10 16 -10 6 0 7 5 4 10 -3 6 -11 10 -16 10 -6 0
-7 -4 -4 -10z"/>
<path d="M1535 945 c0 -13 2 -21 4 -19 2 2 12 -3 22 -12 17 -15 18 -14 15 12
-4 36 -41 53 -41 19z"/>
<path d="M1415 939 c-11 -17 1 -21 15 -4 8 9 8 15 2 15 -6 0 -14 -5 -17 -11z"/>
<path d="M1475 940 c-3 -5 -1 -10 4 -10 6 0 11 5 11 10 0 6 -2 10 -4 10 -3 0
-8 -4 -11 -10z"/>
<path d="M1660 932 c0 -5 7 -15 15 -22 8 -7 15 -8 15 -2 0 5 -7 15 -15 22 -8
7 -15 8 -15 2z"/>
<path d="M1130 919 c0 -5 5 -7 10 -4 6 3 10 8 10 11 0 2 -4 4 -10 4 -5 0 -10
-5 -10 -11z"/>
<path d="M5490 920 c0 -5 5 -10 10 -10 6 0 10 5 10 10 0 6 -4 10 -10 10 -5 0
-10 -4 -10 -10z"/>
<path d="M1065 911 c-3 -5 2 -11 10 -15 8 -3 17 -1 20 3 3 5 -2 11 -10 15 -8
3 -17 1 -20 -3z"/>
<path d="M1196 912 c-2 -4 4 -8 15 -8 10 0 19 4 19 8 0 10 -27 10 -34 0z"/>
<path d="M1290 900 c0 -5 5 -10 11 -10 5 0 7 5 4 10 -3 6 -8 10 -11 10 -2 0
-4 -4 -4 -10z"/>
<path d="M1630 900 c0 -5 5 -10 10 -10 6 0 10 5 10 10 0 6 -4 10 -10 10 -5 0
-10 -4 -10 -10z"/>
<path d="M5375 890 c3 -5 17 -10 31 -10 14 0 22 4 19 10 -3 6 -17 10 -31 10
-14 0 -22 -4 -19 -10z"/>
<path d="M1097 883 c-14 -13 -7 -34 11 -31 20 3 33 18 26 30 -6 10 -28 10 -37
1z"/>
<path d="M5456 882 c-3 -5 8 -12 25 -16 43 -8 57 -7 39 3 -28 16 -58 22 -64
13z"/>
<path d="M1263 866 c4 -9 -2 -17 -14 -21 -10 -4 -16 -11 -13 -17 4 -6 9 -6 13
-1 9 13 34 10 39 -6 3 -10 0 -12 -11 -8 -10 4 -17 -2 -21 -15 -4 -18 -7 -19
-21 -8 -18 15 -30 7 -22 -14 5 -13 11 -13 47 1 37 15 41 20 38 47 -3 29 -19
56 -33 56 -4 0 -5 -7 -2 -14z"/>
<path d="M1615 860 c-3 -5 -1 -10 4 -10 6 0 11 5 11 10 0 6 -2 10 -4 10 -3 0
-8 -4 -11 -10z"/>
<path d="M1677 847 c-3 -8 3 -14 15 -14 16 -2 17 1 8 13 -15 17 -17 17 -23 1z"/>
<path d="M4780 850 c0 -5 5 -10 11 -10 5 0 7 5 4 10 -3 6 -8 10 -11 10 -2 0
-4 -4 -4 -10z"/>
<path d="M4815 850 c-3 -5 -2 -10 4 -10 5 0 13 5 16 10 3 6 2 10 -4 10 -5 0
-13 -4 -16 -10z"/>
<path d="M5568 843 c7 -3 16 -2 19 1 4 3 -2 6 -13 5 -11 0 -14 -3 -6 -6z"/>
<path d="M5605 839 c-11 -17 1 -21 15 -4 8 9 8 15 2 15 -6 0 -14 -5 -17 -11z"/>
<path d="M1630 830 c0 -5 5 -10 10 -10 6 0 10 5 10 10 0 6 -4 10 -10 10 -5 0
-10 -4 -10 -10z"/>
<path d="M5044 832 c9 -15 48 -23 43 -9 -2 7 -14 14 -26 15 -13 2 -21 -1 -17
-6z"/>
<path d="M5650 834 c0 -16 49 -43 77 -44 17 0 35 -5 38 -10 4 -6 14 -9 23 -8
9 2 18 -7 23 -22 4 -14 7 -19 8 -12 1 6 8 12 16 12 30 0 13 17 -47 48 -45 22
-64 28 -69 20 -6 -9 -13 -8 -27 5 -18 17 -42 23 -42 11z"/>
<path d="M1660 811 c0 -8 -10 -25 -22 -38 -17 -18 -18 -23 -6 -23 9 0 18 7 22
15 3 8 9 15 14 15 10 0 40 -26 62 -54 14 -18 14 -19 -7 -8 -27 15 -43 15 -43
1 0 -5 5 -7 10 -4 6 3 10 1 10 -4 0 -6 -6 -11 -12 -12 -7 0 -4 -4 7 -9 19 -7
19 -8 2 -15 -10 -4 -23 -3 -30 4 -14 14 -47 15 -47 1 0 -5 9 -10 20 -10 11 0
20 -4 20 -9 0 -4 12 -6 26 -3 19 3 25 1 20 -7 -4 -6 -14 -11 -23 -11 -9 0 -14
-2 -11 -5 3 -3 19 -2 37 1 25 5 29 9 20 20 -13 16 4 44 27 44 8 0 14 9 14 20
0 30 15 19 125 -90 52 -51 97 -91 99 -89 3 3 -45 54 -106 114 -65 65 -112 105
-115 98 -3 -7 -11 -13 -18 -13 -22 0 -45 29 -38 47 5 13 2 15 -12 10 -11 -5
-22 -1 -31 10 -10 14 -13 15 -14 4z"/>
<path d="M1772 800 c7 -11 17 -20 22 -20 5 0 1 9 -9 20 -10 11 -20 20 -22 20
-2 0 2 -9 9 -20z"/>
<path d="M5501 807 c9 -7 18 -18 20 -26 4 -10 7 -10 18 3 11 14 11 16 -3 16
-9 0 -16 5 -16 10 0 6 -8 10 -17 10 -16 -1 -16 -2 -2 -13z"/>
<path d="M1333 803 c-25 -9 -13 -23 15 -17 37 9 52 24 22 23 -14 0 -31 -3 -37
-6z"/>
<path d="M1594 795 c-10 -24 6 -38 22 -18 7 10 14 21 14 26 0 13 -31 7 -36 -8z"/>
<path d="M4360 800 c0 -5 5 -10 10 -10 6 0 10 5 10 10 0 6 -4 10 -10 10 -5 0
-10 -4 -10 -10z"/>
<path d="M5584 781 c4 -5 -2 -14 -11 -20 -17 -10 -17 -10 0 -11 9 0 17 5 17
10 0 6 5 10 10 10 6 0 10 -11 10 -25 0 -14 4 -25 10 -25 14 0 33 41 23 50 -13
12 -65 22 -59 11z"/>
<path d="M1274 770 c-23 -9 -41 -30 -26 -30 5 0 21 -11 37 -26 15 -14 30 -23
33 -20 3 3 -5 15 -18 26 -22 19 -23 21 -5 34 22 16 8 27 -21 16z"/>
<path d="M1390 770 c0 -5 5 -10 10 -10 6 0 10 5 10 10 0 6 -4 10 -10 10 -5 0
-10 -4 -10 -10z"/>
<path d="M1748 773 c7 -3 16 -2 19 1 4 3 -2 6 -13 5 -11 0 -14 -3 -6 -6z"/>
<path d="M5865 761 c-3 -5 -1 -12 5 -16 5 -3 10 1 10 9 0 18 -6 21 -15 7z"/>
<path d="M1415 750 c-3 -5 -19 -10 -35 -10 -39 0 -46 -26 -11 -44 37 -20 60
-48 44 -53 -7 -3 -13 -9 -13 -14 0 -4 7 -5 17 -2 11 4 14 3 9 -5 -5 -8 0 -12
13 -12 10 0 21 -5 23 -10 2 -6 16 -13 31 -16 18 -3 26 -1 22 6 -3 5 -15 10
-26 10 -12 0 -19 7 -19 19 0 11 -4 23 -10 26 -5 3 -10 10 -10 14 0 9 75 7 108
-3 29 -10 17 -29 -13 -22 -13 3 -26 2 -29 -3 -3 -5 8 -11 24 -13 17 -3 30 -1
30 4 0 4 7 8 16 8 8 0 12 5 9 10 -3 6 -1 10 4 10 6 0 9 10 7 23 -3 12 -5 26
-5 31 -1 4 -12 6 -26 4 -18 -4 -25 -1 -25 11 -1 13 -3 13 -15 -3 -14 -19 -15
-19 -36 0 -15 13 -23 15 -26 7 -3 -9 -9 -10 -23 -1 -10 6 -16 18 -13 25 6 15
-13 18 -22 3z m-5 -40 c0 -5 -7 -10 -16 -10 -8 0 -12 5 -9 10 3 6 10 10 16 10
5 0 9 -4 9 -10z m77 -16 c2 -5 -16 -10 -39 -10 -24 0 -35 1 -25 4 9 2 17 8 17
13 0 11 43 5 47 -7z m-37 -54 c0 -5 -4 -10 -10 -10 -5 0 -10 5 -10 10 0 6 5
10 10 10 6 0 10 -4 10 -10z"/>
<path d="M1825 740 c4 -6 11 -8 16 -5 14 9 11 15 -7 15 -8 0 -12 -5 -9 -10z"/>
<path d="M5685 740 c-3 -5 -2 -10 4 -10 5 0 13 5 16 10 3 6 2 10 -4 10 -5 0
-13 -4 -16 -10z"/>
<path d="M5890 735 c-7 -8 -9 -15 -6 -15 4 0 14 7 22 15 9 8 11 15 6 15 -5 0
-15 -7 -22 -15z"/>
<path d="M1310 730 c0 -5 5 -10 11 -10 5 0 7 5 4 10 -3 6 -8 10 -11 10 -2 0
-4 -4 -4 -10z"/>
<path d="M1876 695 c4 -8 8 -15 10 -15 2 0 4 7 4 15 0 8 -4 15 -10 15 -5 0 -7
-7 -4 -15z"/>
<path d="M5765 700 c-16 -7 -17 -9 -3 -9 9 -1 20 4 23 9 7 11 7 11 -20 0z"/>
<path d="M980 692 c0 -4 9 -8 20 -9 11 -1 18 2 15 8 -7 11 -35 12 -35 1z"/>
<path d="M4455 690 c-3 -5 -1 -10 4 -10 6 0 11 5 11 10 0 6 -2 10 -4 10 -3 0
-8 -4 -11 -10z"/>
<path d="M1320 671 c-7 -14 -6 -21 3 -24 7 -3 5 -6 -5 -6 -10 -1 -18 -5 -18
-9 0 -4 -14 -13 -31 -19 -27 -11 -30 -10 -24 5 17 43 17 45 -4 20 -12 -15 -27
-27 -34 -25 -6 1 -12 -8 -13 -21 -1 -18 1 -20 13 -10 12 10 18 9 29 -7 13 -17
16 -18 24 -5 12 20 23 6 15 -19 -5 -16 -12 -19 -40 -14 -34 6 -42 -1 -27 -23
17 -26 47 -24 81 6 31 28 35 29 47 13 17 -23 17 -34 0 -27 -8 3 -16 -4 -20
-18 -9 -34 -8 -38 9 -38 9 0 20 -10 25 -22 7 -19 9 -19 9 -5 1 10 5 16 11 12
5 -3 17 6 26 20 13 20 24 25 60 25 24 0 44 -4 44 -10 0 -5 -4 -10 -10 -10 -5
0 -10 -5 -10 -12 0 -7 15 3 33 20 24 23 39 31 52 26 12 -5 16 -4 12 3 -11 18
-48 23 -54 7 -9 -23 -20 -16 -18 10 2 18 -1 23 -11 19 -8 -3 -14 0 -14 6 0 6
6 11 13 11 8 0 7 4 -3 10 -20 13 -79 10 -111 -6 -31 -15 -44 -8 -26 14 10 13
8 14 -13 7 -23 -7 -24 -6 -11 9 8 9 19 15 25 13 6 -3 17 2 24 9 9 10 10 14 1
14 -8 0 -5 7 5 19 17 19 17 20 -13 35 -38 20 -38 20 -51 -3z m40 -45 c0 -3 -4
-8 -10 -11 -5 -3 -10 -1 -10 4 0 6 5 11 10 11 6 0 10 -2 10 -4z m96 -89 c10 4
12 0 8 -11 -7 -18 -29 -21 -39 -6 -3 6 -3 15 1 22 6 9 9 9 11 1 3 -7 11 -9 19
-6z m-42 -38 c-5 -8 -10 -6 -16 5 -8 14 -13 15 -24 5 -19 -16 -18 -4 2 15 14
14 17 14 30 1 9 -8 12 -20 8 -26z m-61 -28 c3 -14 1 -18 -9 -14 -8 3 -14 11
-14 19 0 21 17 17 23 -5z"/>
<path d="M1775 680 c3 -5 8 -10 11 -10 2 0 4 5 4 10 0 6 -5 10 -11 10 -5 0 -7
-4 -4 -10z"/>
<path d="M5940 675 c-18 -22 -4 -32 17 -13 10 9 24 13 32 10 8 -3 11 0 7 7
-10 16 -41 14 -56 -4z"/>
<path d="M4630 669 c0 -5 5 -7 10 -4 6 3 10 8 10 11 0 2 -4 4 -10 4 -5 0 -10
-5 -10 -11z"/>
<path d="M1280 661 c0 -5 5 -13 10 -16 6 -3 10 -2 10 4 0 5 -4 13 -10 16 -5 3
-10 2 -10 -4z"/>
<path d="M1800 659 c0 -5 5 -7 10 -4 6 3 10 8 10 11 0 2 -4 4 -10 4 -5 0 -10
-5 -10 -11z"/>
<path d="M5220 660 c0 -6 7 -10 15 -10 8 0 15 2 15 4 0 2 -7 6 -15 10 -8 3
-15 1 -15 -4z"/>
<path d="M4645 650 c-3 -5 -1 -10 4 -10 6 0 11 5 11 10 0 6 -2 10 -4 10 -3 0
-8 -4 -11 -10z"/>
<path d="M5965 650 c-3 -5 -1 -10 4 -10 6 0 11 5 11 10 0 6 -2 10 -4 10 -3 0
-8 -4 -11 -10z"/>
<path d="M5786 636 c7 -19 20 -21 30 -3 4 6 4 9 -1 5 -4 -4 -14 -3 -22 4 -11
8 -12 7 -7 -6z"/>
<path d="M835 630 c-3 -5 1 -10 10 -10 9 0 13 5 10 10 -3 6 -8 10 -10 10 -2 0
-7 -4 -10 -10z"/>
<path d="M1820 632 c0 -2 8 -11 18 -18 15 -12 15 -12 -5 -7 -13 3 -23 8 -23
12 0 13 -53 6 -58 -7 -3 -9 4 -12 23 -10 17 2 30 -2 33 -11 3 -10 0 -12 -12
-8 -9 4 -16 2 -16 -4 0 -6 -6 -9 -13 -6 -6 2 -17 -1 -23 -8 -9 -9 -3 -11 30
-10 64 3 68 4 60 18 -5 7 0 6 11 -3 17 -14 18 -13 12 3 -3 9 -2 17 3 17 6 0
10 -5 10 -11 0 -5 5 -7 12 -3 8 5 6 11 -6 19 -9 7 -14 19 -11 27 5 11 -1 16
-19 16 -14 0 -26 -3 -26 -6z"/>
<path d="M4375 626 c-20 -22 -47 -68 -42 -72 2 -2 17 14 32 36 26 37 33 63 10
36z"/>
<path d="M1119 621 c9 -6 10 -11 2 -15 -6 -4 -15 -5 -19 -2 -4 2 -14 1 -22 -5
-13 -7 -12 -9 3 -9 23 0 60 -37 44 -44 -7 -2 3 -5 21 -5 24 -1 32 3 28 12 -3
6 -9 20 -12 30 -4 9 -10 17 -15 17 -5 0 -9 7 -9 15 0 8 -8 15 -17 15 -14 0
-15 -2 -4 -9z"/>
<path d="M1950 621 c0 -11 67 -71 144 -131 32 -25 76 -60 99 -78 49 -40 101
-69 95 -52 -2 6 -6 10 -8 9 -5 -3 -43 27 -76 59 -7 6 -16 12 -21 12 -4 0 -26
16 -48 36 -22 20 -64 57 -94 82 -29 26 -59 53 -66 60 -16 14 -25 16 -25 3z"/>
<path d="M4260 623 c0 -13 -79 -103 -90 -103 -5 0 -31 -14 -57 -32 -61 -40
-57 -37 -50 -44 3 -4 18 3 33 15 18 14 34 19 50 15 17 -4 26 -1 30 10 3 9 13
16 21 16 8 0 12 4 9 8 -3 5 5 19 17 33 25 28 50 79 42 87 -3 3 -5 1 -5 -5z"/>
<path d="M965 609 c-4 -5 5 -9 19 -9 13 0 32 -3 40 -6 11 -4 15 -2 11 8 -7 17
-61 22 -70 7z"/>
<path d="M1706 585 c-3 -8 -1 -15 4 -15 13 0 22 18 11 24 -5 3 -11 -1 -15 -9z"/>
<path d="M5790 590 c-13 -8 -12 -10 3 -10 9 0 17 5 17 10 0 12 -1 12 -20 0z"/>
<path d="M1530 581 c0 -6 8 -15 18 -18 9 -4 21 -11 25 -17 6 -7 7 -6 5 3 -5
19 -48 47 -48 32z"/>
<path d="M1210 571 c0 -5 5 -13 10 -16 6 -3 10 -2 10 4 0 5 -4 13 -10 16 -5 3
-10 2 -10 -4z"/>
<path d="M4435 570 c-3 -5 -1 -10 4 -10 6 0 11 5 11 10 0 6 -2 10 -4 10 -3 0
-8 -4 -11 -10z"/>
<path d="M1040 561 c0 -4 6 -8 13 -8 6 0 21 -3 33 -7 14 -4 21 -2 21 7 0 8
-13 13 -34 14 -18 1 -33 -2 -33 -6z"/>
<path d="M1890 567 c0 -9 37 -44 53 -50 24 -9 21 0 -9 28 -24 22 -44 32 -44
22z"/>
<path d="M5815 559 c-10 -15 3 -25 16 -12 7 7 7 13 1 17 -6 3 -14 1 -17 -5z"/>
<path d="M5385 550 c3 -5 8 -10 11 -10 2 0 4 5 4 10 0 6 -5 10 -11 10 -5 0 -7
-4 -4 -10z"/>
<path d="M1840 536 c0 -9 5 -16 10 -16 6 0 10 4 10 9 0 6 -4 13 -10 16 -5 3
-10 -1 -10 -9z"/>
<path d="M1752 529 c-19 -7 -21 -12 -12 -29 6 -11 13 -20 16 -20 2 0 0 9 -7
21 -9 18 -8 20 9 15 11 -4 23 -2 26 3 9 15 -6 20 -32 10z"/>
<path d="M5910 530 c-8 -5 -10 -10 -5 -10 6 0 17 5 25 10 8 5 11 10 5 10 -5 0
-17 -5 -25 -10z"/>
<path d="M1095 520 c-3 -5 -1 -10 4 -10 6 0 11 5 11 10 0 6 -2 10 -4 10 -3 0
-8 -4 -11 -10z"/>
<path d="M1803 523 c4 -3 2 -12 -5 -20 -16 -20 -3 -27 16 -8 17 17 13 35 -6
35 -6 0 -8 -3 -5 -7z"/>
<path d="M2024 511 c11 -11 23 -21 28 -21 14 0 -1 19 -25 31 -22 12 -22 12 -3
-10z"/>
<path d="M4287 516 c-4 -11 -1 -13 10 -9 13 5 15 2 9 -13 -5 -14 -4 -16 4 -8
11 11 4 44 -10 44 -4 0 -10 -7 -13 -14z"/>
<path d="M948 513 c7 -3 16 -2 19 1 4 3 -2 6 -13 5 -11 0 -14 -3 -6 -6z"/>
<path d="M5476 512 c-2 -4 11 -6 30 -4 19 2 34 6 34 8 0 8 -59 4 -64 -4z"/>
<path d="M1965 500 c-3 -5 -2 -10 4 -10 5 0 13 5 16 10 3 6 2 10 -4 10 -5 0
-13 -4 -16 -10z"/>
<path d="M1143 489 c-29 -10 -29 -20 -2 -43 17 -14 26 -16 45 -7 13 6 24 16
24 22 0 8 4 8 13 1 15 -13 60 -4 51 9 -3 5 -9 7 -14 4 -5 -3 -20 -1 -35 5 -14
5 -24 6 -21 1 3 -5 -8 -11 -24 -13 -30 -4 -42 6 -17 15 6 2 10 7 7 9 -3 3 -15
2 -27 -3z"/>
<path d="M1976 455 c-9 -14 -14 -25 -12 -25 2 0 13 -3 23 -6 15 -5 16 -4 3 5
-13 10 -13 13 3 25 18 14 22 26 8 26 -5 0 -16 -11 -25 -25z"/>
<path d="M2074 464 c3 -9 6 -18 6 -20 0 -2 10 -3 23 -3 16 1 18 2 5 6 -10 2
-18 11 -18 19 0 8 -5 14 -11 14 -6 0 -8 -7 -5 -16z"/>
<path d="M4240 465 c-20 -24 -6 -28 15 -5 10 11 13 20 8 20 -6 0 -16 -7 -23
-15z"/>
<path d="M1774 455 c10 -8 23 -12 29 -8 11 7 -12 23 -33 23 -12 -1 -11 -4 4
-15z"/>
<path d="M2025 461 c-3 -5 -1 -12 5 -16 12 -7 30 2 30 16 0 12 -27 12 -35 0z"/>
<path d="M1418 446 c-10 -7 -18 -20 -18 -29 0 -8 -11 -18 -25 -21 -14 -4 -43
-22 -64 -41 -21 -19 -49 -35 -62 -35 -16 0 -20 -3 -12 -11 7 -7 21 -6 48 6 30
12 40 13 46 3 6 -9 12 -8 26 4 10 8 28 19 41 22 12 4 22 12 22 17 0 6 11 21
25 35 30 29 31 36 8 27 -15 -5 -16 -3 -5 8 26 28 3 40 -30 15z"/>
<path d="M4255 441 c-11 -9 -33 -32 -50 -50 -41 -46 -2 -25 44 23 36 37 40 57
6 27z"/>
<path d="M1496 423 c-10 -25 7 -35 48 -28 28 6 34 10 26 20 -12 15 -53 8 -43
-8 4 -6 1 -7 -6 -3 -7 5 -10 14 -7 22 3 8 1 14 -3 14 -5 0 -12 -8 -15 -17z"/>
<path d="M1735 430 c-3 -5 -1 -10 4 -10 6 0 11 5 11 10 0 6 -2 10 -4 10 -3 0
-8 -4 -11 -10z"/>
<path d="M2050 430 c0 -5 5 -10 10 -10 6 0 10 5 10 10 0 6 -4 10 -10 10 -5 0
-10 -4 -10 -10z"/>
<path d="M1615 420 c-3 -5 1 -10 9 -10 9 0 16 5 16 10 0 6 -4 10 -9 10 -6 0
-13 -4 -16 -10z"/>
<path d="M1065 411 c-3 -6 0 -11 9 -11 8 0 17 -6 20 -12 3 -7 5 -4 3 6 -2 22
-22 32 -32 17z"/>
<path d="M2080 410 c0 -5 5 -10 10 -10 6 0 10 5 10 10 0 6 -4 10 -10 10 -5 0
-10 -4 -10 -10z"/>
<path d="M1860 400 c-13 -8 -12 -10 3 -10 9 0 17 5 17 10 0 12 -1 12 -20 0z"/>
<path d="M4430 402 c0 -4 9 -8 19 -8 11 0 17 4 15 8 -3 4 -12 8 -20 8 -8 0
-14 -4 -14 -8z"/>
<path d="M4682 390 c0 -14 2 -19 5 -12 2 6 2 18 0 25 -3 6 -5 1 -5 -13z"/>
<path d="M1584 388 c-3 -4 9 -8 26 -8 21 0 30 -4 27 -12 -2 -7 -15 -12 -28
-10 -19 2 -21 1 -9 -8 13 -9 13 -11 0 -20 -8 -5 -10 -10 -4 -10 13 0 54 43 54
57 0 13 -59 23 -66 11z"/>
<path d="M1670 392 c0 -19 32 -72 43 -72 7 0 20 7 29 14 16 12 14 14 -22 25
-28 8 -38 16 -34 26 4 8 1 15 -5 15 -6 0 -11 -4 -11 -8z m60 -52 c0 -5 -4 -10
-10 -10 -5 0 -10 5 -10 10 0 6 5 10 10 10 6 0 10 -4 10 -10z"/>
<path d="M1700 384 c0 -8 5 -12 10 -9 6 3 10 10 10 16 0 5 -4 9 -10 9 -5 0
-10 -7 -10 -16z"/>
<path d="M1823 385 c0 -8 5 -15 10 -15 5 0 4 -6 -2 -14 -7 -9 -8 -17 -2 -20
16 -10 59 11 72 36 12 22 12 22 -15 5 -28 -19 -46 -15 -46 9 0 8 -4 14 -8 14
-5 0 -9 -7 -9 -15z"/>
<path d="M2110 379 c0 -5 5 -7 10 -4 6 3 10 8 10 11 0 2 -4 4 -10 4 -5 0 -10
-5 -10 -11z"/>
<path d="M2196 376 c21 -15 30 -14 19 3 -3 6 -14 11 -23 11 -13 0 -13 -2 4
-14z"/>
<path d="M1936 371 c-16 -6 -17 -9 -6 -16 8 -5 15 -4 17 2 2 6 13 8 25 5 14
-3 19 -1 14 6 -8 13 -22 14 -50 3z"/>
<path d="M2008 373 c6 -2 18 -2 25 0 6 3 1 5 -13 5 -14 0 -19 -2 -12 -5z"/>
<path d="M1500 360 c-10 -6 -11 -10 -2 -10 18 0 15 -17 -7 -37 -14 -13 -17
-23 -11 -33 8 -13 10 -12 10 3 0 24 15 21 28 -7 5 -13 20 -26 31 -29 18 -4 19
-2 10 14 -5 10 -16 19 -23 19 -8 0 -16 7 -20 15 -4 12 3 15 29 15 19 0 35 4
35 8 0 5 -13 8 -30 7 -29 -2 -41 10 -18 17 6 2 8 10 4 16 -9 14 -16 15 -36 2z"/>
<path d="M2140 360 c0 -5 5 -10 11 -10 5 0 7 5 4 10 -3 6 -8 10 -11 10 -2 0
-4 -4 -4 -10z"/>
<path d="M2250 341 c6 -12 17 -21 25 -21 7 0 15 -6 18 -12 2 -7 8 -10 12 -5 8
7 -11 26 -48 48 -17 9 -17 8 -7 -10z"/>
<path d="M4103 345 c-7 -8 -21 -18 -30 -24 -10 -5 -15 -12 -13 -15 3 -3 19 6
35 19 17 13 28 25 25 28 -3 3 -11 -1 -17 -8z"/>
<path d="M1790 334 c0 -12 7 -25 16 -28 23 -9 34 -7 34 4 0 6 -5 10 -11 10 -7
0 -18 8 -25 18 -12 16 -13 16 -14 -4z"/>
<path d="M4680 340 c0 -5 5 -10 10 -10 6 0 10 5 10 10 0 6 -4 10 -10 10 -5 0
-10 -4 -10 -10z"/>
<path d="M2320 330 c0 -6 7 -10 15 -10 8 0 15 2 15 4 0 2 -7 6 -15 10 -8 3
-15 1 -15 -4z"/>
<path d="M4123 314 l-28 -26 33 22 c29 20 39 30 28 30 -3 0 -18 -12 -33 -26z"/>
<path d="M1667 323 c-4 -3 -7 -11 -7 -17 0 -6 5 -5 12 2 6 6 9 14 7 17 -3 3
-9 2 -12 -2z"/>
<path d="M1615 310 c-3 -5 3 -10 15 -10 12 0 18 5 15 10 -3 6 -10 10 -15 10
-5 0 -12 -4 -15 -10z"/>
<path d="M1745 310 c4 -6 11 -8 16 -5 14 9 11 15 -7 15 -8 0 -12 -5 -9 -10z"/>
<path d="M1865 300 c4 -6 11 -8 16 -5 14 9 11 15 -7 15 -8 0 -12 -5 -9 -10z"/>
<path d="M1576 291 c-4 -7 -5 -15 -1 -19 10 -10 66 -11 59 -1 -3 5 -14 9 -24
9 -10 0 -20 5 -22 12 -3 9 -6 9 -12 -1z"/>
<path d="M1715 290 c-3 -5 -2 -10 4 -10 5 0 13 5 16 10 3 6 2 10 -4 10 -5 0
-13 -4 -16 -10z"/>
<path d="M2040 290 c0 -5 5 -10 10 -10 6 0 10 5 10 10 0 6 -4 10 -10 10 -5 0
-10 -4 -10 -10z"/>
<path d="M2327 289 c9 -9 6 -16 -10 -30 -12 -10 -16 -18 -9 -19 6 0 12 4 12 9
0 19 30 19 71 -2 24 -11 47 -25 50 -30 4 -5 12 -8 19 -5 8 2 -2 13 -23 26 -25
14 -35 26 -31 37 3 8 1 15 -6 15 -6 0 -8 -4 -5 -10 9 -15 -17 -11 -39 5 -23
18 -45 20 -29 4z"/>
<path d="M4026 285 c-11 -8 -15 -15 -9 -15 6 0 16 7 23 15 16 19 11 19 -14 0z"/>
<path d="M1345 280 c-3 -5 1 -10 9 -10 9 0 16 5 16 10 0 6 -4 10 -9 10 -6 0
-13 -4 -16 -10z"/>
<path d="M1780 280 c-9 -6 -10 -10 -3 -10 6 0 15 5 18 10 8 12 4 12 -15 0z"/>
<path d="M1988 283 c6 -2 18 -2 25 0 6 3 1 5 -13 5 -14 0 -19 -2 -12 -5z"/>
<path d="M1914 265 c-17 -13 -17 -14 -1 -15 9 0 17 5 17 11 0 7 10 9 25 7 13
-3 22 -1 19 3 -8 14 -38 11 -60 -6z"/>
<path d="M2265 270 c3 -5 8 -10 11 -10 2 0 4 5 4 10 0 6 -5 10 -11 10 -5 0 -7
-4 -4 -10z"/>
<path d="M2426 271 c-3 -5 13 -18 36 -29 121 -55 240 -103 245 -98 3 3 -61 37
-77 41 -13 4 -49 18 -86 36 -23 10 -45 19 -49 19 -4 0 -20 9 -35 20 -16 11
-31 16 -34 11z"/>
<path d="M1712 258 c2 -6 10 -14 16 -16 7 -2 10 2 6 12 -7 18 -28 22 -22 4z"/>
<path d="M1856 255 c4 -8 8 -15 10 -15 2 0 4 7 4 15 0 8 -4 15 -10 15 -5 0 -7
-7 -4 -15z"/>
<path d="M1780 249 c0 -5 5 -7 10 -4 6 3 10 8 10 11 0 2 -4 4 -10 4 -5 0 -10
-5 -10 -11z"/>
<path d="M3952 244 c-12 -8 -22 -12 -22 -7 0 4 -5 0 -11 -10 -6 -9 -14 -15
-20 -12 -5 4 -9 1 -9 -4 0 -6 3 -11 7 -11 9 0 93 50 93 55 0 9 -16 5 -38 -11z"/>
<path d="M5015 250 c4 -6 11 -8 16 -5 14 9 11 15 -7 15 -8 0 -12 -5 -9 -10z"/>
<path d="M1844 227 c3 -10 6 -23 6 -29 0 -5 7 -3 15 6 18 17 20 30 4 20 -6 -3
-16 0 -21 7 -8 11 -8 10 -4 -4z"/>
<path d="M1988 233 c7 -3 16 -2 19 1 4 3 -2 6 -13 5 -11 0 -14 -3 -6 -6z"/>
<path d="M1890 222 c0 -5 7 -13 16 -16 10 -4 14 -1 12 6 -5 15 -28 23 -28 10z"/>
<path d="M3960 210 c-14 -11 -20 -20 -14 -20 7 0 22 9 35 20 31 25 12 26 -21
0z"/>
<path d="M1760 199 c-11 -19 -10 -20 10 -9 11 6 18 15 15 21 -9 13 -13 11 -25
-12z"/>
<path d="M1635 200 c-3 -6 1 -7 9 -4 18 7 21 14 7 14 -6 0 -13 -4 -16 -10z"/>
<path d="M2370 199 c0 -5 5 -7 10 -4 6 3 10 8 10 11 0 2 -4 4 -10 4 -5 0 -10
-5 -10 -11z"/>
<path d="M2400 194 c0 -10 6 -14 14 -11 7 3 19 0 25 -6 8 -8 11 -8 11 1 0 10
-30 32 -44 32 -3 0 -6 -7 -6 -16z"/>
<path d="M2535 179 c33 -17 71 -36 84 -44 14 -8 29 -11 35 -8 5 4 -1 11 -15
16 -13 6 -52 23 -87 39 -81 37 -94 35 -17 -3z"/>
<path d="M770 191 c0 -5 -8 -11 -17 -14 -13 -3 -11 -6 10 -12 35 -9 44 -1 23
20 -9 9 -16 12 -16 6z"/>
<path d="M1190 190 c0 -5 10 -10 23 -10 18 0 19 2 7 10 -19 13 -30 13 -30 0z"/>
<path d="M2005 190 c-3 -5 1 -10 9 -10 9 0 16 5 16 10 0 6 -4 10 -9 10 -6 0
-13 -4 -16 -10z"/>
<path d="M2092 187 c-10 -12 -10 -16 0 -19 17 -7 38 1 38 13 0 6 -4 8 -9 5 -5
-4 -11 -1 -13 5 -2 7 -8 6 -16 -4z"/>
<path d="M2246 191 c-4 -5 5 -8 19 -6 16 1 25 -3 25 -11 0 -8 4 -14 9 -14 19
0 41 13 41 24 0 13 -86 20 -94 7z"/>
<path d="M3845 190 c-13 -6 -15 -9 -5 -9 8 0 22 4 30 9 18 12 2 12 -25 0z"/>
<path d="M1388 183 c7 -3 16 -2 19 1 4 3 -2 6 -13 5 -11 0 -14 -3 -6 -6z"/>
<path d="M1935 180 c3 -5 8 -10 11 -10 2 0 4 5 4 10 0 6 -5 10 -11 10 -5 0 -7
-4 -4 -10z"/>
<path d="M3992 170 c0 -14 2 -19 5 -12 2 6 2 18 0 25 -3 6 -5 1 -5 -13z"/>
<path d="M4690 183 c0 -5 5 -15 10 -23 8 -12 10 -11 10 8 0 12 -4 22 -10 22
-5 0 -10 -3 -10 -7z"/>
<path d="M1967 169 c7 -7 15 -10 18 -7 3 3 -2 9 -12 12 -14 6 -15 5 -6 -5z"/>
<path d="M3800 170 c0 -5 5 -10 10 -10 6 0 10 5 10 10 0 6 -4 10 -10 10 -5 0
-10 -4 -10 -10z"/>
<path d="M5023 165 c0 -11 4 -12 14 -4 7 6 13 13 13 15 0 2 -6 4 -13 4 -8 0
-14 -7 -14 -15z"/>
<path d="M1010 160 c0 -5 7 -10 15 -10 8 0 15 5 15 10 0 6 -7 10 -15 10 -8 0
-15 -4 -15 -10z"/>
<path d="M3845 155 c-16 -8 -23 -14 -15 -14 8 0 26 6 40 14 32 18 15 18 -25 0z"/>
<path d="M4995 160 c-3 -5 -1 -10 4 -10 6 0 11 5 11 10 0 6 -2 10 -4 10 -3 0
-8 -4 -11 -10z"/>
<path d="M1685 150 c3 -5 8 -10 11 -10 2 0 4 5 4 10 0 6 -5 10 -11 10 -5 0 -7
-4 -4 -10z"/>
<path d="M1793 145 c0 -8 4 -12 9 -9 5 3 6 10 3 15 -9 13 -12 11 -12 -6z"/>
<path d="M3755 150 c-13 -6 -15 -9 -5 -9 8 0 22 4 30 9 18 12 2 12 -25 0z"/>
<path d="M4925 150 c-19 -8 -19 -9 2 -9 12 -1 25 4 28 9 7 12 -2 12 -30 0z"/>
<path d="M1560 139 c0 -5 5 -7 10 -4 6 3 10 8 10 11 0 2 -4 4 -10 4 -5 0 -10
-5 -10 -11z"/>
<path d="M2000 129 c0 -5 5 -7 10 -4 6 3 10 8 10 11 0 2 -4 4 -10 4 -5 0 -10
-5 -10 -11z"/>
<path d="M2570 131 c0 -6 4 -13 10 -16 6 -3 7 1 4 9 -7 18 -14 21 -14 7z"/>
<path d="M3700 129 c0 -5 5 -7 10 -4 6 3 10 8 10 11 0 2 -4 4 -10 4 -5 0 -10
-5 -10 -11z"/>
<path d="M1944 115 c8 -8 18 -15 22 -15 3 0 1 7 -6 15 -7 8 -17 15 -22 15 -5
0 -3 -7 6 -15z"/>
<path d="M2670 123 c0 -5 19 -14 42 -20 47 -13 65 -9 27 5 -50 19 -69 23 -69
15z"/>
<path d="M3634 118 c-3 -4 4 -8 15 -8 11 0 22 4 25 8 2 4 -4 8 -15 8 -11 0
-23 -4 -25 -8z"/>
<path d="M3775 120 c-8 -13 5 -13 25 0 13 8 13 10 -2 10 -9 0 -20 -4 -23 -10z"/>
<path d="M5385 120 c3 -5 8 -10 11 -10 2 0 4 5 4 10 0 6 -5 10 -11 10 -5 0 -7
-4 -4 -10z"/>
<path d="M1517 100 c-26 -9 -44 -20 -40 -23 3 -4 -1 -7 -10 -7 -9 0 -17 -4
-17 -10 0 -5 7 -10 15 -10 15 0 22 -19 8 -21 -63 -10 -75 -5 -52 18 9 9 7 10
-9 6 -12 -3 -19 -10 -15 -16 4 -6 0 -8 -11 -4 -10 4 -19 1 -22 -8 -4 -8 -9
-13 -13 -11 -3 2 -15 0 -26 -5 -19 -7 -19 -8 3 -8 13 -1 32 4 42 9 10 6 21 7
24 2 9 -15 64 -12 81 5 14 14 18 14 26 2 5 -8 9 -10 9 -5 0 5 8 2 17 -5 14
-12 16 -12 8 0 -6 11 -3 13 14 8 18 -4 21 -2 16 14 -4 11 -2 19 4 19 6 0 11 4
11 9 0 5 -9 7 -20 4 -11 -3 -20 -1 -20 5 0 6 10 12 22 14 24 3 35 23 16 30 -7
2 -34 -3 -61 -12z m-2 -50 c-3 -5 -10 -10 -16 -10 -5 0 -9 5 -9 10 0 6 7 10
16 10 8 0 12 -4 9 -10z"/>
<path d="M3600 110 c0 -7 -7 -10 -15 -7 -8 4 -17 2 -21 -4 -3 -6 -12 -8 -20
-5 -8 3 -14 1 -14 -4 0 -13 29 -12 65 4 19 8 25 15 17 20 -7 4 -12 2 -12 -4z"/>
<path d="M4700 116 c0 -2 8 -10 18 -17 15 -13 16 -12 3 4 -13 16 -21 21 -21
13z"/>
<path d="M1605 100 c-3 -5 2 -10 12 -10 14 0 15 -2 5 -9 -10 -6 -7 -10 12 -13
31 -6 33 2 8 25 -21 20 -28 21 -37 7z"/>
<path d="M2182 96 c7 -8 15 -12 17 -11 5 6 -10 25 -20 25 -5 0 -4 -6 3 -14z"/>
<path d="M818 86 c-10 -7 -15 -16 -12 -19 4 -3 13 1 21 9 9 8 14 17 12 19 -2
2 -12 -2 -21 -9z"/>
<path d="M1316 85 c4 -8 10 -12 15 -9 11 6 2 24 -11 24 -5 0 -7 -7 -4 -15z"/>
<path d="M1848 77 c-2 -12 -8 -21 -13 -20 -6 0 -16 -5 -23 -13 -16 -17 -14
-17 37 1 22 8 77 15 121 17 44 2 80 7 80 11 0 16 -29 18 -90 7 -52 -9 -65 -9
-85 4 -22 15 -24 14 -27 -7z"/>
<path d="M2395 90 c-4 -6 3 -10 14 -10 25 0 27 6 6 13 -8 4 -17 2 -20 -3z"/>
<path d="M3500 90 c0 -6 -14 -9 -35 -7 -19 3 -35 0 -35 -4 0 -5 15 -9 33 -9
38 0 65 14 48 24 -6 4 -11 2 -11 -4z"/>
<path d="M3655 85 c-22 -7 -31 -13 -20 -13 11 0 36 6 55 13 45 17 17 18 -35 0z"/>
<path d="M2355 80 c3 -5 10 -10 16 -10 5 0 9 5 9 10 0 6 -7 10 -16 10 -8 0
-12 -4 -9 -10z"/>
<path d="M2529 73 c-13 -15 -12 -15 9 -4 23 12 28 21 13 21 -5 0 -15 -7 -22
-17z"/>
<path d="M2694 75 c-8 -19 -6 -20 24 -29 13 -5 22 -3 22 3 0 6 -7 11 -16 11
-8 0 -13 4 -9 9 3 5 1 12 -5 16 -6 3 -13 -1 -16 -10z"/>
<path d="M2788 83 c7 -3 16 -2 19 1 4 3 -2 6 -13 5 -11 0 -14 -3 -6 -6z"/>
<path d="M3097 71 c-4 -17 -3 -21 5 -13 5 5 8 16 6 23 -3 8 -7 3 -11 -10z"/>
<path d="M4692 71 c10 -17 10 -25 0 -41 -15 -25 -4 -27 14 -2 19 24 17 40 -6
52 -19 10 -20 10 -8 -9z"/>
<path d="M1777 66 c-3 -8 -16 -17 -29 -19 -13 -2 -8 -3 11 -1 39 4 49 10 34
25 -7 7 -12 6 -16 -5z"/>
<path d="M2830 70 c0 -5 7 -10 15 -10 8 0 15 5 15 10 0 6 -7 10 -15 10 -8 0
-15 -4 -15 -10z"/>
<path d="M3347 66 c-4 -10 -1 -13 9 -9 15 6 19 23 5 23 -5 0 -11 -7 -14 -14z"/>
<path d="M3386 72 c-2 -4 4 -8 14 -8 10 0 16 4 14 8 -7 10 -21 10 -28 0z"/>
<path d="M4480 69 c0 -5 5 -7 10 -4 6 3 10 8 10 11 0 2 -4 4 -10 4 -5 0 -10
-5 -10 -11z"/>
<path d="M4951 64 c13 -16 39 -19 39 -5 0 5 -11 11 -25 13 -20 4 -23 3 -14 -8z"/>
<path d="M2118 58 c9 -9 15 -9 24 0 9 9 7 12 -12 12 -19 0 -21 -3 -12 -12z"/>
<path d="M2168 63 c7 -3 16 -2 19 1 4 3 -2 6 -13 5 -11 0 -14 -3 -6 -6z"/>
<path d="M2310 59 c0 -5 -4 -8 -9 -4 -5 3 -12 1 -16 -5 -3 -5 0 -10 9 -10 8 0
16 -5 18 -12 3 -9 6 -9 12 0 4 7 3 12 -3 12 -6 0 -8 7 -5 15 4 8 3 15 0 15 -3
0 -6 -5 -6 -11z"/>
<path d="M2660 61 c0 -6 -8 -11 -17 -11 -13 0 -14 -3 -6 -11 9 -9 16 -8 27 4
10 10 12 18 6 22 -5 3 -10 1 -10 -4z"/>
<path d="M2880 60 c0 -5 9 -10 21 -10 11 0 17 5 14 10 -3 6 -13 10 -21 10 -8
0 -14 -4 -14 -10z"/>
<path d="M3575 60 c-8 -13 5 -13 25 0 13 8 13 10 -2 10 -9 0 -20 -4 -23 -10z"/>
<path d="M1620 50 c0 -5 5 -10 10 -10 6 0 10 5 10 10 0 6 -4 10 -10 10 -5 0
-10 -4 -10 -10z"/>
<path d="M2340 44 c0 -8 5 -12 10 -9 6 3 10 10 10 16 0 5 -4 9 -10 9 -5 0 -10
-7 -10 -16z"/>
<path d="M2770 50 c0 -5 4 -10 9 -10 6 0 13 5 16 10 3 6 -1 10 -9 10 -9 0 -16
-4 -16 -10z"/>
<path d="M2940 53 c0 -10 139 -37 147 -29 11 11 -1 14 -67 21 -35 3 -68 9 -72
11 -4 3 -8 1 -8 -3z"/>
<path d="M3500 50 c-12 -8 -12 -10 5 -9 11 0 29 4 40 9 18 8 18 9 -5 9 -14 0
-32 -4 -40 -9z"/>
<path d="M3691 44 c0 -11 3 -14 6 -6 3 7 2 16 -1 19 -3 4 -6 -2 -5 -13z"/>
<path d="M4128 53 c6 -2 18 -2 25 0 6 3 1 5 -13 5 -14 0 -19 -2 -12 -5z"/>
<path d="M1335 40 c3 -5 8 -10 11 -10 2 0 4 5 4 10 0 6 -5 10 -11 10 -5 0 -7
-4 -4 -10z"/>
<path d="M1976 40 c-19 -6 -19 -7 -1 -13 20 -8 29 -4 24 11 -2 5 -13 6 -23 2z"/>
<path d="M2460 39 c0 -5 5 -7 10 -4 6 3 10 8 10 11 0 2 -4 4 -10 4 -5 0 -10
-5 -10 -11z"/>
<path d="M4595 40 c-16 -7 -17 -9 -3 -9 9 -1 20 4 23 9 7 11 7 11 -20 0z"/>
<path d="M1911 37 c2 -1 12 -9 22 -16 14 -12 17 -11 17 3 0 10 -8 16 -22 16
-12 0 -19 -1 -17 -3z"/>
<path d="M2100 31 c0 -5 7 -15 17 -22 15 -13 15 -12 4 9 -12 23 -21 28 -21 13z"/>
<path d="M2510 25 c7 -8 17 -15 22 -15 5 0 3 7 -6 15 -8 8 -18 15 -22 15 -3 0
-1 -7 6 -15z"/>
<path d="M2795 30 c-3 -5 1 -10 9 -10 9 0 16 5 16 10 0 6 -4 10 -9 10 -6 0
-13 -4 -16 -10z"/>
<path d="M2847 33 c-4 -3 -7 -11 -7 -17 0 -6 5 -5 12 2 6 6 9 14 7 17 -3 3 -9
2 -12 -2z"/>
<path d="M2893 33 c-7 -3 -13 -9 -13 -15 0 -6 7 -7 16 -4 9 3 21 3 27 -1 17
-10 47 -11 41 -1 -3 4 -13 8 -23 8 -9 0 -21 4 -26 9 -6 5 -16 6 -22 4z"/>
<path d="M3110 30 c0 -5 7 -10 16 -10 8 0 12 5 9 10 -3 6 -10 10 -16 10 -5 0
-9 -4 -9 -10z"/>
<path d="M3347 28 c-6 -4 8 -6 33 -3 24 3 46 8 49 11 8 8 -68 1 -82 -8z"/>
<path d="M1168 23 c7 -3 16 -2 19 1 4 3 -2 6 -13 5 -11 0 -14 -3 -6 -6z"/>
<path d="M3228 23 c18 -2 45 -2 60 0 15 2 0 4 -33 4 -33 0 -45 -2 -27 -4z"/>
<path d="M1000 9 c0 -5 5 -7 10 -4 6 3 10 8 10 11 0 2 -4 4 -10 4 -5 0 -10 -5
-10 -11z"/>
<path d="M1270 10 c0 -5 5 -10 10 -10 6 0 10 5 10 10 0 6 -4 10 -10 10 -5 0
-10 -4 -10 -10z"/>
<path d="M1790 10 c-33 -7 -31 -7 18 -9 29 0 52 3 52 9 0 11 -17 11 -70 0z"/>
<path d="M2700 10 c0 -5 7 -7 15 -4 8 4 15 8 15 10 0 2 -7 4 -15 4 -8 0 -15
-4 -15 -10z"/>
<path d="M4000 10 c0 -5 5 -10 11 -10 5 0 7 5 4 10 -3 6 -8 10 -11 10 -2 0 -4
-4 -4 -10z"/>
<path d="M2398 3 c7 -3 16 -2 19 1 4 3 -2 6 -13 5 -11 0 -14 -3 -6 -6z"/>
</g>
</svg>
